<?xml version="1.0" encoding="UTF-8"?>
<svg width="484px" height="596px" viewBox="0 0 484 596" version="1.1" xmlns="http://www.w3.org/2000/svg" xmlns:xlink="http://www.w3.org/1999/xlink">
    <!-- Generator: Sketch 46.2 (44496) - http://www.bohemiancoding.com/sketch -->
    <title>R_logo</title>
    <desc>Created with Sketch.</desc>
    <defs></defs>
    <g id="Page-1" stroke="none" stroke-width="1" fill="none" fill-rule="evenodd">
        <g id="R_logo" transform="translate(-1.000000, 4.000000)">
            <path d="M418,227 L418,583 C418,585.209139 416.209139,587 414,587 L71,587 C68.790861,587 67,585.209139 67,583 L67,227" id="Rectangle" stroke-opacity="0.701794611" stroke="#000000" stroke-width="10"></path>
            <path d="M245.697942,2.46478636 L478.389117,215.046847 L478.389117,215.046847 C480.020098,216.53688 480.13436,219.066961 478.644328,220.697942 C477.8865,221.527456 476.814739,222 475.691175,222 L10.308825,222 L10.308825,222 C8.09968601,222 6.30882501,220.209139 6.30882501,218 C6.30882501,216.876436 6.78136895,215.804675 7.61088318,215.046847 L240.302058,2.46478636 L240.302058,2.46478636 C241.82989,1.06898974 244.17011,1.06898974 245.697942,2.46478636 Z" id="Triangle" stroke-opacity="0.7" stroke="#000000" stroke-width="10"></path>
            <path d="M189.378594,359.182957 L189.131128,361.865928 L189.131128,361.865928 C189.043756,362.813202 189,363.763996 189,364.715295 L189,365.77349 L189,368.336955 L189,368.336955 C189,368.719028 189.016101,369.100931 189.048261,369.481645 L189.18931,371.151409 L189.18931,371.151409 C189.216138,371.469002 189.254123,371.785554 189.303194,372.100475 L189.576455,373.854153 L189.576455,373.854153 C189.717929,374.762081 189.951059,375.653299 190.272265,376.51412 L190.909705,378.222432 L192.030794,380.819851 L193.611012,384.4955 L195.383607,388.579847 L197.048063,392.709964 L198.087303,395.348669 L199.276501,398.160473 L200.020906,400.471447 L200.602156,402.175233 L200.602156,402.175233 C200.837819,402.86602 201.036994,403.568695 201.198863,404.280456 L201.319643,404.811517 L201.319643,404.811517 C201.469966,405.472456 201.587929,406.140401 201.673099,406.812931 L201.698956,407.017068 L201.698956,407.017068 C201.801314,407.825251 201.852647,408.63908 201.852647,409.453759 L201.852647,417.642833 L201.852647,419.856366 L201.852647,430.795427 L201.852647,430.795427 C201.852647,431.342877 201.874683,431.890072 201.9187,432.435738 L202.234459,436.349788 L202.234459,436.349788 C202.244461,436.473764 202.257187,436.597571 202.272622,436.720995 L202.872273,441.51617 L203.66145,446.868305 L204.553293,452.125674 L205.341235,456.34907 L205.341235,456.34907 C205.456305,456.965853 205.603065,457.576268 205.780926,458.177936 L206.614916,460.999039 L206.614916,460.999039 C206.620918,461.019334 206.626958,461.039629 206.633028,461.059923 L207.780793,464.893346 L207.780793,464.893346 C207.937331,465.41617 208.117206,465.931692 208.319889,466.438382 L209.44821,469.25906 L209.44821,469.25906 C209.648488,469.759722 209.870832,470.251297 210.114588,470.732258 L210.481223,471.455695 L210.481223,471.455695 C210.8905,472.263283 211.374411,473.030706 211.926618,473.747987 L212.051223,473.909878 L212.051223,473.909878 C212.520038,474.518807 213.056826,475.072158 213.651145,475.559148 L213.651145,475.559148 L213.651145,475.559148 C214.245282,476.045969 214.89541,476.459974 215.587692,476.792418 L215.818154,476.903062 L215.818154,476.903062 C216.490428,477.225868 217.199465,477.465542 217.929618,477.616777 L217.929618,477.616777 L217.929618,477.616777 C218.660576,477.768223 219.40507,477.84452 220.151519,477.84452 L220.741927,477.84452 L220.741927,477.84452 C221.165491,477.84452 221.58821,477.806775 222.005076,477.731667 L222.005076,477.731667 L222.005076,477.731667 C222.417467,477.657409 222.807835,477.491059 223.147157,477.245017 L223.172569,477.22659 L223.172569,477.22659 C223.532104,476.965857 223.861793,476.666233 224.155648,476.33311 L224.237968,476.239788 L224.237968,476.239788 C224.585973,475.845271 224.878628,475.405154 225.107848,474.931496 L225.38108,474.366936 L225.38108,474.366936 C225.780843,473.540878 226.1113,472.68302 226.369033,471.80215 L226.69079,470.702495 L226.69079,470.702495 C226.892973,470.011496 227.049913,469.308014 227.16061,468.59655 L227.468577,466.617256 L227.468577,466.617256 C227.565929,465.991557 227.627346,465.360805 227.65252,464.728058 L227.756973,462.10294 L227.756973,462.10294 C227.773906,461.677301 227.774428,461.251195 227.75853,460.825557 L227.614726,456.97443 L227.614726,449.918594 L227.410957,443.953455 L227.211078,439.676944 L226.693789,431.257409 L226.693789,431.257409 C226.670464,430.877795 226.670328,430.497076 226.693382,430.117377 L226.765233,428.934081 L226.765233,428.934081 C226.808274,428.225334 226.931916,427.523763 227.133768,426.843038 L227.630459,425.167954 L227.630459,425.167954 C227.731659,424.826679 227.852268,424.491475 227.991699,424.163956 L228.912025,422.002179 L228.912025,422.002179 C229.153113,421.435878 229.447151,420.893693 229.790219,420.382799 L230.418604,419.447031 L230.418604,419.447031 C230.898052,418.733062 231.469648,418.085625 232.11855,417.521574 L232.896189,416.845605 L232.896189,416.845605 C233.252665,416.535748 233.631113,416.252216 234.028607,415.997215 L235.184949,415.255351 L235.184949,415.255351 C235.590417,414.995212 236.014634,414.765474 236.454036,414.568003 L237.919049,413.909738 L237.919049,413.909738 C238.269205,413.75239 238.628353,413.615889 238.994585,413.500913 L239.071531,413.476712 L239.071531,413.476712 C239.486967,413.346282 239.919837,413.279921 240.355252,413.279921 L245.921098,413.279921 L245.921098,413.279921 C246.263491,413.279921 246.604994,413.314524 246.940431,413.383135 L247.608718,413.519849 L247.608718,413.519849 C248.105383,413.621493 248.579822,413.811406 249.009553,414.080588 L250.26108,414.86457 L251.582722,415.747096 L251.582722,415.747096 C251.938816,415.984902 252.263479,416.266651 252.549118,416.585806 L253.883953,418.077176 L254.921907,419.350737 L254.921907,419.350737 C255.196221,419.6873 255.444363,420.044454 255.664043,420.419058 L256.210761,421.351048 L256.210761,421.351048 C256.437991,421.738389 256.62624,422.147342 256.772792,422.571877 L257.340083,424.215118 L258.191061,427.605664 L258.191061,427.605664 C258.353732,428.253823 258.481536,428.910262 258.573921,429.572135 L258.625628,429.942451 L258.929336,432.919034 L258.929336,434.567498 L258.929336,434.567498 C258.929336,435.120722 258.903589,435.673606 258.852264,436.22441 L258.773834,437.065412 L258.625628,438.185617 L258.435216,440.009006 L258.217996,442.291023 L258.11314,443.38346 L258.11314,443.38346 C258.041879,444.125791 258.006206,444.871094 258.006206,445.616821 L258.006206,445.99703 L258.006206,449.034582 L258.006206,453.292284 L257.804978,457.30042 L257.804978,457.30042 C257.792846,457.54175 257.786781,457.783334 257.786781,458.024961 L257.786781,462.835675 L257.786781,464.333201 L257.786781,464.333201 C257.786781,464.62047 257.79467,464.907696 257.810407,465.194541 L257.9503,467.744551 L257.9503,467.744551 C257.987457,468.422261 258.092228,469.094579 258.262959,469.751442 L258.435216,470.414292 L258.735701,471.425253 L258.735701,471.425253 C258.864607,471.858916 259.024818,472.282644 259.215018,472.693083 L259.263671,472.798038 L259.263671,472.798038 C259.421633,473.138931 259.592533,473.473753 259.775861,473.801696 L259.934884,474.086078 L259.934884,474.086078 C260.210131,474.578418 260.532206,475.04299 260.896657,475.473341 L260.941068,475.525819 L260.941068,475.525819 C261.276039,475.921398 261.646173,476.285812 262.046848,476.614562 L262.046848,476.614562 L262.046848,476.614562 C262.446844,476.94276 262.885398,477.220816 263.352754,477.442615 L263.748084,477.630236 L263.748084,477.630236 C264.047551,477.772342 264.365894,477.870716 264.693314,477.92226 L264.693314,477.92226 L264.693314,477.92226 C265.021922,477.974016 265.35405,478 265.68673,478 L268.099137,478 L268.675717,478 L268.675717,478 C268.957199,478 269.238045,477.973973 269.514692,477.92226 L269.514692,477.92226 L269.514692,477.92226 C269.79049,477.870716 270.057295,477.779093 270.306583,477.650318 L270.371439,477.616777 L270.371439,477.616777 C270.664543,477.465372 270.941487,477.284418 271.197943,477.076757 L271.489605,476.840522 L271.489605,476.840522 C271.939611,476.476108 272.345292,476.060065 272.698417,475.600969 L273.552831,474.490063 L274.805503,472.336226 L276.321671,468.955105 L277.683695,465.180742 L279.080416,460.593101 L279.909423,457.449362 L279.909423,457.449362 C280.041129,456.949804 280.15345,456.445322 280.246047,455.937018 L280.768715,453.068532 L281.615409,449.034582 L281.948598,447.335849 L281.948598,447.335849 C282.068003,446.726963 282.163103,446.113576 282.233728,445.497133 L282.450057,443.608061 L283.053912,440.009006 L283.377599,437.416708 L283.377599,437.416708 C283.391046,437.309035 283.402074,437.201065 283.410642,437.092883 L283.704595,433.387937 L283.918634,430.724055 L283.918634,430.724055 C283.960457,430.203184 283.981411,429.680869 283.981411,429.158342 L283.981411,425.993162 L283.981411,422.30469 L283.981411,417.61324 L283.981411,417.61324 C283.981411,417.048807 283.967032,416.484459 283.938188,415.920791 L283.704595,411.351364 L283.704595,409.022516 L283.704595,409.022516 C283.704595,408.189283 283.640078,407.357282 283.511681,406.533984 L283.39779,405.803542 L283.39779,404.94942 L283.555286,403.95714 L284.183955,402.265031 L284.824288,400.471447 L285.892783,397.851084 L286.545163,396.191327 L287.626638,393.462145 L288.464383,391.435978 L288.588496,391.112365 L288.588496,391.112365 C289.114854,389.739622 289.71557,388.3966 290.387928,387.089284 L290.387928,387.089284 L291.233902,385.07819 L291.881743,383.616243 L293.278634,380.353071 L294.085116,378.222432 L294.999382,375.219555 L295.560055,372.857369 L296.120093,369.889116 L296.504734,367.928618 L296.838983,365.483101 L297,363.739434 L297,361.681857 L297,361.681857 C297,361.485643 296.991517,361.289518 296.97455,361.094038 L296.87033,359.892838 L296.87033,359.892838 C296.849461,359.652298 296.815781,359.413036 296.769461,359.176083 L296.348002,357.020373 L296.348002,357.020373 C296.325054,356.902783 296.298925,356.785816 296.269784,356.669605 L295.725059,354.499544 L295.16481,352.376803 L294.584073,350.826973 L294.584073,350.826973 C294.420978,350.391718 294.227045,349.968673 294.003717,349.561071 L293.088731,347.890856 L293.088731,347.890856 C292.917916,347.579051 292.730176,347.27682 292.526446,346.985509 L291.627323,345.700085 L289.984496,343.58755 L288.2808,341.844593 L288.2808,341.844593 C287.993719,341.550892 287.680593,341.283867 287.345326,341.0468 L285.892783,340.019844 L284.62709,339.182908 L284.62709,339.182908 C283.914646,338.711813 283.153508,338.318993 282.356909,338.011262 L280.61949,337.34009 L280.61949,337.34009 C278.680717,336.591129 276.6152,336.225782 274.537382,336.264296 L268.552876,336.375226 L268.552876,336.375226 C267.531168,336.394165 266.512937,336.500682 265.509383,336.693609 L265.509383,336.693609 L265.509383,336.693609 C264.505787,336.886548 263.520175,337.163701 262.562983,337.522133 L260.784633,338.188083 L257.129565,339.367679 L255.333993,339.847527 L255.159063,339.894197 L255.159063,339.894197 C254.020282,340.198019 252.865934,340.439922 251.701024,340.618852 L249.057612,341.024879 L249.057612,341.024879 C247.418263,341.276679 245.76216,341.403131 244.103596,341.403131 L239.409513,341.403131 L239.409513,341.403131 C237.710398,341.403131 236.015864,341.22671 234.353143,340.876697 L233.608674,340.719982 L233.608674,340.719982 C232.440074,340.473995 231.295771,340.124103 230.189342,339.674474 L230.189342,339.674474 L227.962193,338.923243 L225.554567,338.188083 L222.631624,337.439157 L220.647947,336.856254 L220.647947,336.856254 L220.647947,336.856254 C218.657335,336.254435 216.585227,335.966594 214.506115,336.00308 L207.89745,336.119055 L207.89745,336.119055 C207.219309,336.130956 206.546081,336.23676 205.896929,336.433456 L205.751594,336.477493 L205.751594,336.477493 C205.196753,336.645613 204.652974,336.848358 204.12346,337.084539 L203.772965,337.24087 L203.772965,337.24087 C203.476633,337.373044 203.183367,337.512006 202.893402,337.657647 L201.462267,338.376467 L201.462267,338.376467 C200.938204,338.63969 200.440355,338.952231 199.975447,339.309862 L199.286978,339.839467 L199.286978,339.839467 C199.279992,339.84484 199.27301,339.850217 199.266032,339.855598 L198.752769,340.251321 L198.752769,340.251321 C198.403962,340.520248 198.072482,340.810969 197.760303,341.121742 L197.638548,341.24295 L197.638548,341.24295 C197.245037,341.634695 196.866639,342.041364 196.504182,342.462064 L195.711982,343.38158 L195.711982,343.38158 C195.593684,343.518888 195.477078,343.657648 195.362195,343.797835 L194.826997,344.450903 L194.826997,344.450903 C194.616297,344.708005 194.411429,344.969842 194.212547,345.236209 L193.619076,346.031056 L193.619076,346.031056 C193.220219,346.56525 192.854987,347.123794 192.525502,347.70344 L192.219111,348.242453 L192.219111,348.242453 C192.093576,348.463301 191.971859,348.686298 191.854014,348.911353 L191.543213,349.504904 L191.543213,349.504904 C191.218577,350.124871 190.938793,350.767354 190.706013,351.427402 L190.6288,351.646339 L190.6288,351.646339 C190.363941,352.397348 190.139875,353.162152 189.957584,353.9374 L189.789213,354.653441 L189.609011,355.692148 L189.609011,355.692148 C189.509275,356.267038 189.45913,356.849451 189.45913,357.432944 L189.45913,357.432944 L189.45913,357.432944 C189.45913,358.017213 189.432256,358.601168 189.378594,359.182957 Z" id="Tooth_u" fill-opacity="0.7" fill="#000000"></path>
        </g>
    </g>
</svg>