<?xml version="1.0" encoding="UTF-8"?>
<svg width="644px" height="61px" viewBox="0 0 644 61" version="1.1" xmlns="http://www.w3.org/2000/svg" xmlns:xlink="http://www.w3.org/1999/xlink">
    <!-- Generator: Sketch 46.2 (44496) - http://www.bohemiancoding.com/sketch -->
    <title>Title_logo</title>
    <desc>Created with Sketch.</desc>
    <defs>
        <path d="M0.157130165,6.91459164 L0.0839184314,7.70683701 C0.0580697098,7.98655701 0.0451247686,8.26731761 0.0451247686,8.54822866 L0.0451247686,8.86069612 L0.0451247686,9.61766149 C0.0451247686,9.73048478 0.049888251,9.84325791 0.0594026667,9.95568 L0.10113142,10.4487475 C0.109068424,10.5425266 0.120306071,10.6360048 0.134823529,10.728994 L0.215666573,11.2468352 C0.257520941,11.5149331 0.326491608,11.7781039 0.421519184,12.0322979 L0.610102965,12.5367367 L0.941772549,13.3037319 L1.40927373,14.3891122 L1.93368722,15.5951767 L2.42611075,16.8147564 L2.73356549,17.5939379 L3.08538478,18.424234 L3.3056138,19.10664 L3.47757427,19.6097499 C3.54729412,19.8137319 3.60621929,20.0212245 3.65410761,20.2313875 L3.68983969,20.3882167 C3.73431216,20.5833851 3.76920973,20.7806221 3.79440816,20.9792006 L3.80205678,21.0394925 C3.83234008,21.2781403 3.84752565,21.5184555 3.84752565,21.7590215 L3.84752565,24.1771684 L3.84752565,24.8308012 L3.84752565,28.0609899 C3.84752565,28.222646 3.85404612,28.3842269 3.86706824,28.5453564 L3.96048439,29.7011337 C3.96344345,29.7377427 3.96720816,29.774289 3.97177475,29.8107475 L4.14917898,31.2267154 L4.38265349,32.8071453 L4.64650039,34.3595844 L4.87961098,35.6067073 C4.91365396,35.7888356 4.95707106,35.9690896 5.00969161,36.1467521 L5.25642416,36.9797939 C5.25819984,36.9857893 5.25998557,36.9917821 5.26178259,36.9977712 L5.601344,38.1297401 C5.64765365,38.2841221 5.70087027,38.4363514 5.76083325,38.5859704 L6.0946422,39.4188931 C6.15389365,39.5667381 6.2196731,39.7118864 6.29178729,39.8539128 L6.40025475,40.0675374 C6.52133773,40.3060046 6.66450071,40.5326253 6.82786886,40.7444307 L6.86473286,40.7922254 C7.00342839,40.9720444 7.16223498,41.1354419 7.33806306,41.2792399 C7.51383592,41.4229942 7.70617224,41.5452501 7.91098227,41.643408 L7.97916361,41.6760848 C8.17805302,41.7714053 8.38781867,41.8421785 8.60383122,41.8868425 C8.8200822,41.9315557 9.04033757,41.9540877 9.2611702,41.9540877 L9.43584125,41.9540877 C9.56114949,41.9540877 9.68621051,41.942937 9.80953851,41.9207681 C9.93154259,41.8988372 10.0470312,41.8497166 10.1474184,41.7770576 L10.1549365,41.7716159 C10.2613032,41.6946294 10.3588405,41.6061497 10.4457763,41.5077836 L10.4701289,41.4802288 C10.5730861,41.3637364 10.6596668,41.2337645 10.7274805,41.0939058 L10.8083137,40.9271909 C10.9265832,40.6832712 11.0243476,40.4299485 11.1005967,40.1698419 L11.1957873,39.8451242 C11.2556022,39.6410781 11.3020323,39.4333512 11.3347815,39.2232659 L11.4258924,38.6387964 C11.4546936,38.4540378 11.4728634,38.2677797 11.4803112,38.0809411 L11.5112119,37.3057666 C11.5162227,37.180085 11.5163758,37.0542568 11.5116737,36.9285639 L11.46913,35.7913694 L11.46913,33.7078573 L11.4088458,31.9464211 L11.3497123,30.6836053 L11.1966745,28.1974084 C11.1897738,28.0853122 11.1897336,27.9728901 11.196554,27.860769 L11.2178108,27.511354 C11.2305443,27.3020687 11.2671235,27.0949021 11.3268405,26.8938913 L11.4737845,26.3992567 C11.5037239,26.2984818 11.5394058,26.1994997 11.5806557,26.1027869 L11.8529305,25.464437 C11.9242541,25.2972143 12.0112439,25.1371128 12.1127404,24.9862513 L12.2986416,24.709929 C12.4404831,24.4991015 12.6095937,24.30792 12.8015686,24.1413618 L13.0316298,23.9417552 C13.1370918,23.8502579 13.2490541,23.7665337 13.366651,23.6912346 L13.7087498,23.4721701 C13.8287059,23.395354 13.9542086,23.3275146 14.0842039,23.2692036 L14.517622,23.0748251 C14.6212141,23.0283618 14.7274541,22.9880543 14.8358024,22.9541033 L14.8585788,22.946957 C14.9814839,22.9084424 15.1095467,22.8888466 15.2383624,22.8888466 L16.8849945,22.8888466 C16.9862902,22.8888466 17.0873224,22.8990645 17.18656,22.9193248 L17.3842698,22.9596949 C17.5312063,22.9897093 17.6715671,23.0457887 17.7986886,23.1252752 L18.16896,23.3567767 L18.5599624,23.6173773 C18.6653114,23.6875988 18.7613616,23.7707964 18.8458667,23.8650394 L19.2407718,24.3054251 L19.5478463,24.6814943 C19.6290008,24.7808776 19.7024,24.8863415 19.7674039,24.9969582 L19.9291482,25.2721648 C19.9963608,25.3865427 20.0520659,25.5073021 20.0954227,25.6326627 L20.2632533,26.1178943 L20.5149992,27.1190866 C20.5631247,27.3104812 20.6009475,27.5043206 20.6282792,27.6997648 L20.6435639,27.8091152 L20.7334149,28.6880687 L20.7334149,29.1748424 C20.7334149,29.3382036 20.7258102,29.5014645 20.7106259,29.664111 L20.6874227,29.9124501 L20.6435639,30.2432371 L20.5872439,30.7816571 L20.5229804,31.4555113 L20.4919592,31.7781039 C20.4708769,31.9973013 20.4603231,32.2173801 20.4603231,32.4375867 L20.4603231,32.5498621 L20.4603231,33.4468166 L20.4603231,34.7040759 L20.4007906,35.8876272 C20.3972016,35.9588893 20.3954071,36.0302291 20.3954071,36.1015802 L20.3954071,37.5221293 L20.3954071,37.9643391 C20.3954071,38.0491691 20.3977412,38.133984 20.4023969,38.2186873 L20.4437835,38.9716721 C20.4547765,39.1717952 20.4857725,39.3703198 20.5362824,39.5642871 L20.5872439,39.7600184 L20.6761412,40.0585469 C20.7142776,40.1866055 20.7616753,40.3117279 20.8179451,40.4329273 L20.8323263,40.4639096 C20.8790714,40.5645792 20.9296188,40.6634409 20.9838682,40.7602804 L21.0309145,40.8442641 C21.1123451,40.9896392 21.2076298,41.1268238 21.315451,41.2539082 L21.3285898,41.2693956 C21.4276894,41.3862115 21.5371922,41.4938169 21.6557302,41.5908928 C21.7740675,41.6878057 21.9038118,41.7699196 22.0420769,41.8354114 L22.1590337,41.8908092 C22.2476298,41.9327774 22.3418102,41.9618186 22.4386761,41.9770438 C22.5358933,41.9923247 22.6341522,42 22.7325616,42 L23.446262,42 L23.6168533,42 C23.7001161,42 23.7832157,41.9923153 23.8650604,41.9770438 C23.9466541,41.9618215 24.0255749,41.9347662 24.099338,41.896736 L24.1185255,41.8868425 C24.2052392,41.842129 24.2871718,41.7886955 24.3630306,41.7273716 L24.4493302,41.6576205 C24.5824502,41.5500077 24.7024816,41.4271575 24.8069522,41.2915904 L25.0597271,40.9635566 L25.4303247,40.32755 L25.8788769,39.3291423 L26.2818259,38.214609 L26.69504,36.8599309 L26.9402855,35.9316181 C26.9792627,35.7841003 27.0124925,35.6351257 27.0398871,35.4850327 L27.1945161,34.6380018 L27.4450071,33.4468166 L27.5435796,32.9452024 C27.5789051,32.7654086 27.60704,32.5842795 27.6279341,32.4022465 L27.6919341,31.8444276 L27.8705694,30.7816571 L27.9663435,30.0161839 C27.9703216,29.9843893 27.9735843,29.9525069 27.9761192,29.9205618 L28.0630839,28.8265307 L28.1264063,28.0399146 C28.1387796,27.8861069 28.1449788,27.7318728 28.1449788,27.5775761 L28.1449788,26.6429319 L28.1449788,25.5537654 L28.1449788,24.1684299 C28.1449788,24.0017588 28.1407122,23.8351128 28.1321914,23.6686675 L28.0630839,22.3193642 L28.0630839,21.63168 C28.0630839,21.3856352 28.0439969,21.139954 28.006011,20.896843 L27.9723169,20.681151 L27.9723169,20.4289379 L28.0189114,20.1359284 L28.2049004,19.6362663 L28.3943404,19.10664 L28.7104502,18.3328746 L28.9034416,17.842766 L29.2234039,17.0368675 L29.4712471,16.4385618 L29.5079655,16.3429899 C29.6636863,15.937646 29.8414055,15.5410657 30.04032,15.1550293 L30.2905976,14.5611743 L30.4822588,14.129477 L30.8955231,13.1658967 L31.1341176,12.5367367 L31.4045992,11.6500227 L31.5704722,10.9524967 L31.7361569,10.0760006 L31.8499388,9.49709015 L31.9488376,8.77495343 L31.9964737,8.26007104 L31.9964737,7.65248776 C31.9964737,7.5945403 31.9939639,7.53663045 31.9889443,7.47890866 L31.9581114,7.12420299 C31.9519373,7.0531791 31.9419733,6.98253134 31.9282698,6.9125606 L31.8035827,6.27600358 C31.7967812,6.24127522 31.7890635,6.20673493 31.7804424,6.1724203 L31.6192878,5.53162567 L31.4535404,4.90479761 L31.2817318,4.44714806 C31.2334808,4.31862806 31.1761067,4.19370627 31.1100361,4.07334806 L30.8393412,3.58014269 C30.7887937,3.48808119 30.7332643,3.39882806 30.6729914,3.31280955 L30.4069898,2.93324239 L29.9209663,2.30942328 L29.4169349,1.79475403 C29.3320031,1.7080209 29.2393663,1.62917373 29.1401663,1.55916537 L28.7104502,1.25592537 L28.336,1.00877731 C28.1252267,0.869675821 27.9000471,0.753680597 27.6643765,0.662810149 L27.1503686,0.464620299 C26.5767906,0.24346209 25.9657161,0.135578507 25.3510024,0.146949851 L23.5805114,0.179709851 C23.2782431,0.185301493 22.9770039,0.216745075 22.6801067,0.273714627 C22.3831969,0.330696716 22.0916078,0.412527761 21.8084267,0.518380299 L21.282309,0.71502806 L20.2009725,1.0633397 L19.66976,1.20503642 L19.6180078,1.21881493 C19.2811043,1.30853194 18.9395953,1.37996955 18.5949616,1.43280179 L17.8129192,1.55269612 C17.3279247,1.62705493 16.8379608,1.66439104 16.3472941,1.66439104 L14.9585694,1.66439104 C14.4558933,1.66439104 13.9545725,1.61229851 13.4626635,1.5089409 L13.2424031,1.46266567 C12.8966902,1.39002448 12.5581553,1.28670448 12.2308141,1.15393433 L11.5719266,0.932111642 L10.8596405,0.71502806 L9.99489882,0.493869851 L9.40803765,0.321745075 C8.81912345,0.144041194 8.20609882,0.059038209 7.59100235,0.0698202985 L5.63585631,0.104059701 C5.43523137,0.107570149 5.23605961,0.138813134 5.04401067,0.196898507 L5.00101396,0.209899701 C4.83686525,0.259547463 4.67599184,0.319413134 4.51933741,0.389158209 L4.41564486,0.435320597 C4.32797616,0.474349254 4.24121475,0.515383881 4.15542965,0.558386866 L3.73203451,0.770656119 C3.57699263,0.848374925 3.42970478,0.94066209 3.29216376,1.04627642 L3.08848439,1.20265433 C3.08641757,1.20424657 3.084352,1.20583881 3.08228769,1.20741851 L2.93044078,1.32427881 C2.82724769,1.40369015 2.72917961,1.48953313 2.63682384,1.58130627 L2.60080314,1.61708776 C2.48438463,1.73276955 2.37243608,1.85285194 2.26520596,1.97708418 L2.03083545,2.24860478 C1.99583749,2.28915045 1.96134149,2.33012239 1.92735373,2.3715206 L1.76901773,2.56436955 C1.70668298,2.64028299 1.64607373,2.7176006 1.58723514,2.7962597 L1.41165929,3.03097075 C1.29365835,3.18871522 1.18560627,3.35364358 1.08812925,3.52480299 L0.997485176,3.68397672 C0.960346353,3.74918328 0.924336941,3.81502925 0.889473255,3.88148955 L0.797524078,4.05676119 C0.701481412,4.23983104 0.618708329,4.42954567 0.549841569,4.62445075 L0.526998463,4.68910567 C0.448641004,4.91086567 0.382351937,5.1367003 0.328421773,5.36563164 L0.278610196,5.57707343 L0.225298071,5.88378627 C0.195791561,6.05354149 0.180956361,6.22552836 0.180956361,6.39782866 C0.180956361,6.57035463 0.173005929,6.74279284 0.157130165,6.91459164 Z" id="path-1"></path>
    </defs>
    <g id="Page-1" stroke="none" stroke-width="1" fill="none" fill-rule="evenodd">
        <g id="Title_logo" transform="translate(-17.000000, -24.000000)">
            <g id="Tooth" transform="translate(629.000000, 25.000000)">
                <g id="Group-3">
                    <mask id="mask-2" fill="white">
                        <use xlink:href="#path-1"></use>
                    </mask>
                    <g id="Clip-2"></g>
                    <polygon id="Fill-1" fill-opacity="0.8" fill="#000000" mask="url(#mask-2)" points="-0.582326237 42.6268657 32.6239232 42.6268657 32.6239232 -0.557960597 -0.582326237 -0.557960597"></polygon>
                </g>
                <path d="M0.112176023,6.85693101 L0.0388527341,7.65048581 L0.0388527341,7.65048581 C0.01296464,7.93066547 0,8.21188619 0,8.49325634 L0,8.80624356 L0,9.56445159 L0,9.56445159 C0,9.67745902 0.00477078727,9.79041622 0.0142996391,9.90302179 L0.0560919704,10.3968957 L0.0560919704,10.3968957 C0.0640410098,10.4908315 0.0752957811,10.5844595 0.089835396,10.6776053 L0.170801489,11.1962988 L0.170801489,11.1962988 C0.212719715,11.464841 0.281795404,11.7284405 0.376967554,11.9830497 L0.565838492,12.488325 L0.898012987,13.2565756 L1.36622591,14.3437395 L1.89143918,15.5517859 L2.38461127,16.7733697 L2.69253418,17.5538316 L3.04488919,18.3854921 L3.26545355,19.0690195 L3.43767587,19.5729561 L3.43767587,19.5729561 C3.50750188,19.7772734 3.56651678,19.9851069 3.61447801,20.1956278 L3.6502645,20.3527022 L3.6502645,20.3527022 C3.69480469,20.5481913 3.72975665,20.7457524 3.7549922,20.9446698 L3.76265373,21.0050483 L3.76265373,21.0050483 C3.79298188,21.2440882 3.80819183,21.4847983 3.80819183,21.7257596 L3.80819183,24.1478802 L3.80819183,24.8025872 L3.80819183,28.038084 L3.80819183,28.038084 C3.80819183,28.2000057 3.81472097,28.3618522 3.82776292,28.5232465 L3.92132132,29.6809231 L3.92132132,29.6809231 C3.92428488,29.7175922 3.92805532,29.7542111 3.93262886,29.7907169 L4.11030323,31.209008 L4.34413326,32.7920337 L4.60838318,34.3470302 L4.84184747,35.5962038 L4.84184747,35.5962038 C4.87594229,35.7786326 4.91942675,35.9591778 4.97212617,36.137136 L5.21923442,36.9715468 L5.21923442,36.9715468 C5.22101281,36.9775494 5.22280251,36.9835521 5.22460101,36.9895548 L5.56467948,38.1233839 L5.56467948,38.1233839 C5.6110609,38.2780221 5.6643573,38.4305003 5.72441159,38.5803665 L6.05872882,39.4146516 L6.05872882,39.4146516 C6.11807049,39.5627346 6.18395011,39.7081301 6.25617411,39.8503862 L6.36480673,40.0643605 L6.36480673,40.0643605 C6.48607408,40.3032246 6.62945506,40.530209 6.79307198,40.7423624 L6.82999211,40.7902457 L6.82999211,40.7902457 C6.96890009,40.9703514 7.12794849,41.1340187 7.30404305,41.278058 L7.30404305,41.278058 L7.30404305,41.278058 C7.48008356,41.422047 7.672714,41.5444993 7.87783465,41.6428278 L7.94611981,41.6755537 L7.94611981,41.6755537 C8.14531207,41.7710315 8.35539713,41.841921 8.5717386,41.8866523 L8.5717386,41.8866523 L8.5717386,41.8866523 C8.78831887,41.9314463 9.00890962,41.9540129 9.23007977,41.9540129 L9.40501555,41.9540129 L9.40501555,41.9540129 C9.53051585,41.9540129 9.65576604,41.9428489 9.77928183,41.920634 L9.77928183,41.920634 L9.77928183,41.920634 C9.90147169,41.8986702 10.0171362,41.8494683 10.1176762,41.7766951 L10.1252057,41.771245 L10.1252057,41.771245 C10.2317344,41.6941268 10.3294202,41.6055056 10.4164884,41.5069762 L10.4408794,41.4793739 L10.4408794,41.4793739 C10.5439921,41.3626858 10.6307046,41.2325104 10.6986216,41.0924143 L10.7795791,40.9254317 L10.7795791,40.9254317 C10.8980275,40.6811049 10.9959407,40.4273722 11.0723059,40.1668331 L11.1676415,39.8415831 L11.1676415,39.8415831 C11.2275475,39.637203 11.2740483,39.4291309 11.3068473,39.2186979 L11.3980969,38.633273 L11.3980969,38.633273 C11.4269421,38.448207 11.4451395,38.2616466 11.4525986,38.0744959 L11.4835477,37.2980526 L11.4835477,37.2980526 C11.4885648,37.1721595 11.4887194,37.0461282 11.4840089,36.9202351 L11.4414004,35.7811693 L11.4414004,33.6942321 L11.3810244,31.9298951 L11.3218009,30.6650116 L11.16853,28.1747267 L11.16853,28.1747267 C11.1616188,28.0624463 11.1615786,27.9498395 11.1684094,27.8375341 L11.1896985,27.4875449 L11.1896985,27.4875449 C11.2024514,27.2779156 11.2390862,27.0704086 11.2988942,26.8690676 L11.446062,26.3736201 L11.446062,26.3736201 C11.476047,26.2726796 11.5117832,26.1735348 11.5530959,26.0766631 L11.8257853,25.4372642 L11.8257853,25.4372642 C11.8972188,25.2697668 11.9843411,25.1094022 12.0859908,24.9582928 L12.2721788,24.6815163 L12.2721788,24.6815163 C12.4142376,24.4703424 12.5835995,24.2788467 12.7758667,24.1120148 L13.0062782,23.9120802 L13.0062782,23.9120802 C13.1119007,23.8204326 13.2240336,23.7365708 13.3418095,23.661148 L13.6844292,23.4417235 L13.6844292,23.4417235 C13.804568,23.3647811 13.9302618,23.2968303 14.0604551,23.2384234 L14.4945331,23.0437255 L14.4945331,23.0437255 C14.598283,22.9971858 14.7046973,22.9568121 14.8132105,22.9228053 L14.8360091,22.9156473 L14.8360091,22.9156473 C14.9591013,22.8770694 15.0873591,22.8574413 15.2163709,22.8574413 L16.8655104,22.8574413 L16.8655104,22.8574413 C16.9669604,22.8574413 17.0681464,22.867676 17.1675351,22.8879696 L17.365546,22.9284061 L17.365546,22.9284061 C17.5127062,22.9584698 17.6532807,23.0146413 17.7806084,23.0942585 L18.151431,23.3261404 L18.5430288,23.5871693 L18.5430288,23.5871693 C18.6485382,23.6575062 18.7447346,23.7408405 18.8293684,23.8352383 L19.2248748,24.2763477 L19.5324169,24.6530349 L19.5324169,24.6530349 C19.613695,24.7525815 19.6872186,24.8582187 19.7523089,24.9690172 L19.9142995,25.244676 L19.9142995,25.244676 C19.981627,25.3592419 20.0374043,25.4801998 20.0808272,25.6057664 L20.2489133,26.0917954 L20.5010551,27.0946329 L20.5010551,27.0946329 C20.5492539,27.286342 20.5871217,27.4804999 20.6144951,27.6762653 L20.6298156,27.7857954 L20.7198034,28.6661933 L20.7198034,29.1537669 L20.7198034,29.1537669 C20.7198034,29.3173965 20.7121745,29.4809257 20.6969671,29.6438396 L20.6737286,29.8925868 L20.6298156,30.2239148 L20.5733973,30.7632271 L20.5090359,31.4381899 L20.4779675,31.7613051 L20.4779675,31.7613051 C20.456853,31.9808677 20.4462832,32.2013094 20.4462832,32.4218766 L20.4462832,32.5343327 L20.4462832,33.4327637 L20.4462832,34.6920841 L20.38666,35.877589 L20.38666,35.877589 C20.3830655,35.9489682 20.3812683,36.0204228 20.3812683,36.0918899 L20.3812683,37.5147771 L20.3812683,37.9577073 L20.3812683,37.9577073 C20.3812683,38.0426742 20.383606,38.1276285 20.3882688,38.2124698 L20.4297184,38.9666982 L20.4297184,38.9666982 C20.4407281,39.1671477 20.4717714,39.3660023 20.5223581,39.5602858 L20.5733973,39.75634 L20.6624299,40.0553565 L20.6624299,40.0553565 C20.7006244,40.183623 20.7480943,40.308951 20.8044497,40.4303484 L20.8188654,40.4613916 L20.8188654,40.4613916 C20.8656691,40.5622191 20.9163061,40.6612508 20.9706255,40.7582482 L21.0177434,40.8423611 L21.0177434,40.8423611 C21.099298,40.9879827 21.1947278,41.1253914 21.3027132,41.2526784 L21.315872,41.2682 L21.315872,41.2682 C21.4151225,41.3852021 21.524792,41.4929867 21.6435105,41.5902226 L21.6435105,41.5902226 L21.6435105,41.5902226 C21.762028,41.6872953 21.8919699,41.7695371 22.0304455,41.8351397 L22.1475805,41.8906331 L22.1475805,41.8906331 C22.2363114,41.9326645 22.3306352,41.9617611 22.4276486,41.9770065 L22.4276486,41.9770065 L22.4276486,41.9770065 C22.5250139,41.9923146 22.6234224,42 22.7219942,42 L23.4367813,42 L23.6076199,42 L23.6076199,42 C23.691022,42 23.7742356,41.992302 23.8562049,41.9770065 L23.8562049,41.9770065 L23.8562049,41.9770065 C23.9379229,41.9617611 24.0169764,41.9346612 24.0908393,41.896573 L24.110056,41.8866523 L24.110056,41.8866523 C24.1969017,41.8418707 24.278959,41.7883489 24.3549459,41.7269281 L24.4413644,41.6570559 L24.4413644,41.6570559 C24.5746997,41.5492713 24.6949012,41.4262163 24.7995309,41.2904275 L25.0526907,40.9618496 L25.4238527,40.3247991 L25.8730878,39.3247495 L26.2766504,38.2083884 L26.6904937,36.8514805 L26.9361252,35.9216422 L26.9361252,35.9216422 C26.9751493,35.7738858 27.0084297,35.6246726 27.0358659,35.4743292 L27.1907304,34.6259039 L27.4416028,33.4327637 L27.5403254,32.9303215 L27.5403254,32.9303215 C27.5757047,32.7502284 27.6038825,32.5688042 27.6248084,32.3864758 L27.6889058,31.8277365 L27.8678257,30.7632271 L27.9637331,29.996491 L27.9637331,29.996491 C27.9677172,29.9646441 27.9709849,29.9327093 27.9735237,29.9007117 L28.0606208,28.8048829 L28.1240396,28.0169741 L28.1240396,28.0169741 C28.1364317,27.8629136 28.1426404,27.7084261 28.1426404,27.5538759 L28.1426404,26.6176958 L28.1426404,25.5267394 L28.1426404,24.1391274 L28.1426404,24.1391274 C28.1426404,23.9721824 28.1383798,23.8052626 28.1298335,23.6385437 L28.0606208,22.2870231 L28.0606208,21.5982089 L28.0606208,21.5982089 C28.0606208,21.3517598 28.0415047,21.1056749 28.0034609,20.8621643 L27.9697155,20.6461179 L27.9697155,20.3934903 L28.016381,20.0999993 L28.2026532,19.5995161 L28.3923817,19.0690195 L28.7089728,18.2939826 L28.9022706,17.8030686 L29.2227076,16.9958457 L29.4709282,16.3965569 L29.5077025,16.3008404 L29.5077025,16.3008404 C29.6636604,15.8948179 29.8416502,15.4975859 30.0408676,15.1109151 L30.0408676,15.1109151 L30.2915264,14.5160843 L30.4834794,14.0836776 L30.897373,13.1185138 L31.1363308,12.488325 L31.4072242,11.60015 L31.5733498,10.9014753 L31.7392868,10.0235414 L31.8532545,9.44367583 L31.9522914,8.72035369 L32,8.20462143 L32,7.59604222 L32,7.59604222 C32,7.53800707 31.9974864,7.47999829 31.9924591,7.42218039 L31.9615792,7.0668956 L31.9615792,7.0668956 C31.9553957,6.99574998 31.9454166,6.92498236 31.9316922,6.85489789 L31.8068153,6.21729357 L31.8068153,6.21729357 C31.8000159,6.18251316 31.792274,6.14791736 31.7836397,6.11354509 L31.6222398,5.47169619 L31.4562399,4.84384309 L31.2841697,4.38544274 L31.2841697,4.38544274 C31.2358452,4.25670527 31.1783838,4.13157945 31.1122126,4.01102095 L30.8411055,3.51701388 L30.8411055,3.51701388 C30.7904936,3.4247898 30.7348671,3.33539754 30.6745024,3.24923516 L30.4080958,2.86903924 L29.9213322,2.24420506 L29.4165333,1.72868252 L29.4165333,1.72868252 C29.3314722,1.64181314 29.2386943,1.56283389 29.1393558,1.49271551 L28.7089728,1.18896803 L28.3339524,0.941423505 L28.3339524,0.941423505 C28.1228582,0.802085391 27.8973357,0.685899302 27.6613062,0.594880281 L27.1465157,0.396364621 L27.1465157,0.396364621 C26.5720643,0.1748411 25.9600593,0.06678046 25.3444095,0.0781720721 L23.5712226,0.11098229 L23.5712226,0.11098229 C23.2684941,0.116583886 22.9667962,0.148088972 22.6694468,0.205151891 L22.6694468,0.205151891 L22.6694468,0.205151891 C22.3720849,0.262218451 22.0800519,0.344193387 21.7964395,0.450208443 L21.2695208,0.64717948 L20.1865377,0.996074174 L19.6545163,1.13800098 L19.6026853,1.15180464 L19.6026853,1.15180464 C19.2652688,1.24166745 18.9232398,1.31321643 18.5780813,1.36613925 L17.7948481,1.48623186 L17.7948481,1.48623186 C17.3091151,1.56070784 16.8184176,1.59810908 16.3269913,1.59810908 L14.9361519,1.59810908 L14.9361519,1.59810908 C14.4327104,1.59810908 13.9306263,1.54592842 13.4379682,1.44240348 L13.217385,1.39605095 L13.217385,1.39605095 C12.8711331,1.32329416 12.5320802,1.21980512 12.2042494,1.08681629 L12.2042494,1.08681629 L11.5443535,0.864621175 L10.8309828,0.64717948 L9.96492565,0.425666132 L9.3771696,0.253258253 L9.3771696,0.253258253 L9.3771696,0.253258253 C8.78735866,0.0752552952 8.17340058,-0.00988060098 7.5573675,0.000911078847 L5.59924434,0.0352135138 L5.59924434,0.0352135138 C5.39831391,0.0387334097 5.19883886,0.0700276859 5.00649749,0.128205396 L4.96343531,0.141230341 L4.96343531,0.141230341 C4.79903791,0.19095592 4.63791828,0.250922857 4.48102531,0.320779027 L4.37717487,0.367017776 L4.37717487,0.367017776 C4.28937267,0.406111573 4.20247914,0.447213129 4.11656342,0.490290046 L3.69252357,0.702898827 L3.69252357,0.702898827 C3.53724561,0.780753511 3.38973475,0.873194967 3.25198429,0.978973307 L3.04799352,1.13561711 L3.04799352,1.13561711 C3.04592355,1.13720631 3.04385483,1.13879665 3.04178738,1.14038811 L2.88970926,1.25743291 L2.88970926,1.25743291 C2.78635903,1.33697475 2.68814287,1.42296257 2.59564522,1.51488149 L2.55956967,1.55073183 L2.55956967,1.55073183 C2.44297389,1.66659995 2.33085613,1.78688218 2.22346147,1.9113148 L1.98873534,2.1832841 L1.98873534,2.1832841 C1.95368409,2.2238964 1.91913431,2.26493818 1.88509479,2.30640191 L1.72651769,2.49956275 L1.72651769,2.49956275 C1.66408803,2.57560721 1.60338648,2.65305187 1.5444583,2.73183647 L1.36861511,2.96693196 L1.36861511,2.96693196 C1.25043524,3.12493314 1.1422185,3.2901363 1.04459318,3.46158073 L0.9538107,3.62100724 L0.9538107,3.62100724 C0.916615073,3.6863285 0.880550704,3.75228518 0.845633805,3.81885093 L0.753544617,3.99440808 L0.753544617,3.99440808 C0.657356208,4.17777877 0.574457086,4.36780892 0.505485336,4.56303428 L0.482607447,4.62779043 L0.482607447,4.62779043 C0.404130672,4.84991987 0.337740667,5.07612938 0.283728508,5.30542813 L0.233840957,5.51721487 L0.180447653,5.824438 L0.180447653,5.824438 C0.150896339,5.99447595 0.136038424,6.16673916 0.136038424,6.33932135 L0.136038424,6.33932135 L0.136038424,6.33932135 C0.136038424,6.51213334 0.128075886,6.6848524 0.112176023,6.85693101 Z" id="Stroke-4"></path>
            </g>
            <text id="Reguleringstannlegen" font-family="Copperplate" font-size="48" font-weight="normal" fill-opacity="0.85" fill="#000000">
                <tspan x="14" y="50">Reguleringstannlegene</tspan>
            </text>
            <text id="EILERTSEN-&amp;-HOVLANDS" font-family="Copperplate" font-size="28" font-weight="normal" fill-opacity="0.7" fill="#000000">
                <tspan x="18" y="84">EILERTSEN &amp; HOVLANDSDAL</tspan>
            </text>
        </g>
    </g>
</svg>