<?xml version="1.0" encoding="UTF-8"?>
<svg width="284px" height="372px" viewBox="0 0 284 372" version="1.1" xmlns="http://www.w3.org/2000/svg" xmlns:xlink="http://www.w3.org/1999/xlink">
    <!-- Generator: Sketch 46.2 (44496) - http://www.bohemiancoding.com/sketch -->
    <title>Tooth</title>
    <desc>Created with Sketch.</desc>
    <defs></defs>
    <g id="Page-1" stroke="none" stroke-width="1" fill="none" fill-rule="evenodd" fill-opacity="0.8">
        <path d="M1.35087288,61.1926862 L0.668724765,68.5813666 L0.668724765,68.5813666 C0.462742666,70.8124596 0.359587803,73.0518531 0.359587803,75.2924344 L0.359587803,78.4325193 L0.359587803,85.2875491 L0.359587803,85.2875491 C0.359587803,86.1874385 0.397547211,87.0869274 0.473364804,87.9836172 L0.865764102,92.6244984 L0.865764102,92.6244984 C0.929011698,93.3725236 1.01856182,94.1180916 1.13424823,94.8598185 L1.92442791,99.9260786 L1.92442791,99.9260786 C2.25795571,102.064502 2.80756579,104.163572 3.56481652,106.19105 L5.35982946,110.997053 L8.295213,117.791531 L12.4327507,127.406418 L17.0739886,138.090494 L21.4320907,148.894238 L24.1531669,155.796652 L27.2668791,163.151927 L29.2159801,169.197112 L30.8301488,173.9241 L30.8301488,173.9241 C31.3857235,175.551064 31.8552881,177.20614 32.2368944,178.882461 L32.6753481,180.808502 L32.6753481,180.808502 C33.0297422,182.365285 33.3078354,183.93846 33.5086324,185.522395 L33.6096696,186.319401 L33.6096696,186.319401 C33.877678,188.433515 34.0120823,190.562428 34.0120823,192.693463 L34.0120823,214.114816 L34.0120823,219.905054 L34.0120823,248.734073 L34.0120823,248.734073 C34.0120823,250.023438 34.0640343,251.312281 34.1678119,252.597463 L35.0157095,263.097836 L35.0157095,263.097836 C35.0392929,263.389893 35.0692915,263.681396 35.1056837,263.972135 L36.681811,276.56388 L38.7481369,290.564263 L41.0832715,304.316686 L43.1914136,315.605669 L43.1914136,315.605669 C43.4626938,317.058359 43.8086817,318.496099 44.2279999,319.913164 L46.4836388,327.535987 L46.4836388,327.535987 C46.497789,327.583807 46.5120223,327.631602 46.5263388,327.679372 L49.5952103,337.919395 L49.5952103,337.919395 C49.9642472,339.150775 50.3883167,340.364987 50.8661412,341.558372 L53.9781827,349.330815 L53.9781827,349.330815 C54.4503426,350.510053 54.9745238,351.667789 55.5491842,352.800618 L56.6045689,354.8811 L56.6045689,354.8811 C57.6761925,356.993594 58.9432259,359.001128 60.3890854,360.877427 L60.7153497,361.300822 L60.7153497,361.300822 C61.9428553,362.893761 63.3483443,364.341236 64.9044731,365.615084 L64.9044731,365.615084 L64.9044731,365.615084 C66.4601245,366.888542 68.1623664,367.971556 69.9750009,368.841097 L70.5784277,369.130568 L70.5784277,369.130568 C72.338663,369.974973 74.195159,370.601924 76.1069384,370.997584 L76.1069384,370.997584 L76.1069384,370.997584 C78.0208257,371.39368 79.9701617,371.593282 81.9246071,371.593282 L83.4704968,371.593282 L83.4704968,371.593282 C84.5795227,371.593282 85.6863446,371.494503 86.7778439,371.298117 L86.7778439,371.298117 L86.7778439,371.298117 C87.8576194,371.103839 88.8797247,370.668701 89.7681872,370.025045 L89.8347283,369.976839 L89.8347283,369.976839 C90.7761073,369.294847 91.6393419,368.511041 92.4087548,367.639657 L92.6242872,367.395559 L92.6242872,367.395559 C93.5354853,366.363598 94.3017521,365.212238 94.9019232,363.973279 L95.7739986,362.173016 L95.7739986,362.173016 C96.7164556,360.227461 97.4955155,358.206913 98.1031273,356.132253 L99.1257741,352.640476 L99.1257741,352.640476 C99.6024285,351.012964 99.9724193,349.356093 100.23339,347.680417 L101.121221,341.979724 L101.121221,341.979724 C101.350732,340.50605 101.495519,339.020425 101.55487,337.530168 L101.844839,330.249299 L101.844839,330.249299 C101.884763,329.246837 101.88599,328.243208 101.848518,327.240652 L101.465771,317.000286 L101.465771,298.543302 L100.932233,282.939461 L100.408885,271.752694 L99.0453112,249.580018 L99.0453112,249.580018 C98.9903209,248.685837 98.9900003,247.789133 99.0443512,246.894913 L99.258406,243.373128 L99.258406,243.373128 C99.359871,241.703752 99.651364,240.05139 100.127236,238.448062 L101.546585,233.665938 L101.546585,233.665938 C101.785165,232.862107 102.069504,232.072572 102.398211,231.301199 L104.957059,225.296383 L104.957059,225.296383 C105.525423,223.962609 106.218628,222.685564 107.027416,221.482296 L108.995641,218.55409 L108.995641,218.55409 C110.125953,216.87248 111.473516,215.347603 113.003341,214.019051 L115.434036,211.908155 L115.434036,211.908155 C116.274408,211.178347 117.166648,210.510504 118.103722,209.90989 L121.445941,207.767707 L121.445941,207.767707 C122.401916,207.154979 123.401953,206.613885 124.437848,206.148863 L128.582999,204.288073 L128.582999,204.288073 C129.408511,203.917494 130.255174,203.595955 131.118571,203.325131 L131.463515,203.216932 L131.463515,203.216932 C132.551286,202.875729 133.684668,202.702143 134.824696,202.702143 L149.532214,202.702143 L149.532214,202.702143 C150.339396,202.702143 151.144519,202.783586 151.93535,202.945233 L154.01252,203.369811 L154.01252,203.369811 C155.183421,203.609146 156.30194,204.056433 157.31501,204.690452 L160.761425,206.847353 L164.361784,209.249202 L164.361784,209.249202 C165.201265,209.80923 165.96675,210.472915 166.640115,211.224539 L170.247311,215.250971 L173.072557,218.714207 L173.072557,218.714207 C173.719252,219.506937 174.304169,220.348118 174.822157,221.230345 L176.428813,223.966769 L176.428813,223.966769 C176.964451,224.879057 177.40829,225.84222 177.753811,226.842116 L179.296666,231.306943 L181.588397,240.429564 L181.588397,240.429564 C181.971906,241.956186 182.273219,243.502287 182.491036,245.061199 L182.66256,246.288798 L183.457772,254.075026 L183.457772,258.603546 L183.457772,258.603546 C183.457772,259.906475 183.397142,261.208698 183.27608,262.505991 L183.050678,264.921386 L182.66256,267.851656 L182.164075,272.621293 L181.59533,278.590693 L181.29287,281.738708 L181.29287,281.738708 C181.124889,283.48706 181.040754,285.242456 181.040754,286.99886 L181.040754,288.285098 L181.040754,296.230856 L181.040754,307.368391 L180.509107,317.947332 L180.509107,317.947332 C180.480542,318.515725 180.466253,319.084745 180.466253,319.653855 L180.466253,332.332372 L180.466253,336.362033 L180.466253,336.362033 C180.466253,337.038658 180.484814,337.715156 180.521913,338.390764 L180.908945,345.438829 L180.908945,345.438829 C180.996598,347.035048 181.243516,348.618517 181.64602,350.16564 L182.164075,352.156918 L182.950852,354.801457 L182.950852,354.801457 C183.288353,355.935876 183.707789,357.044289 184.205852,358.11795 L184.395004,358.525701 L184.395004,358.525701 C184.767489,359.328657 185.170299,360.117193 185.602566,360.889609 L186.090674,361.761805 L186.090674,361.761805 C186.81138,363.049632 187.654703,364.264891 188.608914,365.390678 L188.725203,365.527877 L188.725203,365.527877 C189.602311,366.562699 190.571366,367.515931 191.620485,368.375887 L191.620485,368.375887 L191.620485,368.375887 C192.667842,369.234399 193.816109,369.961812 195.039796,370.541977 L196.074877,371.032723 L196.074877,371.032723 C196.859035,371.404503 197.692512,371.661767 198.549794,371.796641 L198.549794,371.796641 L198.549794,371.796641 C199.410206,371.932007 200.279871,372 201.150866,372 L207.467355,372 L208.977094,372 L208.977094,372 C209.714045,372 210.44942,371.931924 211.173846,371.796641 L211.173846,371.796641 L211.173846,371.796641 C211.895944,371.661792 212.594454,371.422121 213.247226,371.085227 L213.417044,370.997584 L213.417044,370.997584 C214.184532,370.601485 214.909619,370.12814 215.581049,369.584896 L216.344748,368.967 L216.344748,368.967 C217.522991,368.013703 218.585284,366.925422 219.509833,365.724489 L221.74698,362.818567 L225.026887,357.184447 L228.996694,348.339968 L232.562974,338.466775 L236.220001,326.466237 L238.442162,318.047359 L238.442162,318.047359 C238.752732,316.870732 239.017488,315.682486 239.235829,314.485309 L240.640567,306.783077 L242.857544,296.230856 L243.776591,291.549187 L243.776591,291.549187 C244.05811,290.115118 244.282358,288.670398 244.448803,287.218467 L245.042909,282.035941 L246.623914,272.621293 L247.476759,265.798207 L247.476759,265.798207 C247.50846,265.544583 247.534438,265.290276 247.554672,265.03548 L248.327651,255.30167 L248.90446,248.129646 L248.90446,248.129646 C249.003121,246.902908 249.052511,245.672705 249.052511,244.442006 L249.052511,235.958068 L249.052511,226.309511 L249.052511,213.816773 L249.052511,213.816773 C249.052511,212.48738 249.018524,211.158204 248.950585,209.830549 L248.327651,197.657282 L248.327651,191.239249 L248.327651,191.239249 C248.327651,189.276704 248.175615,187.317107 247.872908,185.378047 L247.524317,183.145073 L247.524317,180.910753 L247.936769,178.315167 L249.582803,173.888868 L251.259372,169.197112 L254.057121,162.342603 L255.76517,158.000949 L258.596927,150.861827 L260.79038,145.561732 L261.230784,144.414315 L261.230784,144.414315 C262.532118,141.023848 264.01718,137.706787 265.679369,134.477876 L265.826834,134.191416 L268.041929,128.930671 L269.738173,125.106462 L273.395708,116.570434 L275.507371,110.997053 L277.901225,103.141988 L279.369242,96.9628644 L280.835572,89.1983669 L281.842638,84.0700042 L282.717883,77.6729014 L283.139485,73.1117335 L283.139485,67.6527008 L283.139485,67.6527008 C283.139485,67.1905571 283.119462,66.7286304 283.079473,66.2682201 L282.791748,62.9555451 L282.791748,62.9555451 C282.74254,62.3889973 282.663162,61.8254759 282.553952,61.2673801 L281.423367,55.4897305 L281.423367,55.4897305 C281.36917,55.2127644 281.307654,54.9372807 281.238884,54.6635686 L279.801243,48.9415907 L278.33435,43.3888156 L276.749873,39.1643666 L276.749873,39.1643666 C276.365366,38.1392157 275.908149,37.142829 275.381709,36.1828079 L272.831549,31.5323128 L272.831549,31.5323128 C272.428836,30.7979221 271.986309,30.0860772 271.505945,29.3999593 L269.072043,25.9235447 L264.770581,20.3974711 L260.197181,15.7231341 L260.197181,15.7231341 C259.520364,15.0313799 258.782181,14.4024594 257.991708,13.8441065 L254.057121,11.0648964 L250.463528,8.69093628 L250.463528,8.69093628 C248.78392,7.58137168 246.989554,6.65616959 245.111552,5.93137612 L240.249872,4.05506597 L240.249872,4.05506597 C235.173504,2.0958997 229.765252,1.14020537 224.324876,1.24095341 L208.655455,1.53112884 L208.655455,1.53112884 C205.980257,1.5806697 203.314221,1.85930216 200.68659,2.36397 L200.68659,2.36397 L200.68659,2.36397 C198.058791,2.86866999 195.478137,3.59366062 192.971955,4.53126435 L188.315588,6.27328751 L178.745387,9.35893203 L174.044029,10.6141405 L173.140185,10.8550558 L173.140185,10.8550558 C170.455508,11.5706429 167.734069,12.1403979 164.987807,12.561821 L156.968102,13.7924714 L156.968102,13.7924714 C153.103303,14.3855377 149.198944,14.6833631 145.288906,14.6833631 L132.348444,14.6833631 L132.348444,14.6833631 C127.899604,14.6833631 123.462764,14.22187 119.109157,13.3062931 L117.159868,12.8963518 L117.159868,12.8963518 C114.100148,12.2528833 111.103962,11.3376219 108.206966,10.16146 L108.206966,10.16146 L102.37555,8.1963539 L96.0715838,6.27328751 L88.4183464,4.31421046 L83.2244242,2.78942589 L83.2244242,2.78942589 L83.2244242,2.78942589 C78.0123408,1.21515724 72.5868785,0.462210532 67.1430722,0.557652769 L49.8393887,0.861025482 L49.8393887,0.861025482 C48.0637937,0.892155678 46.3010543,1.16892405 44.6013576,1.6834507 L44.2208249,1.79864431 L44.2208249,1.79864431 C42.7680615,2.23842012 41.3442743,2.76877167 39.957828,3.38658316 L38.9241727,3.84718814 L38.9241727,3.84718814 C38.2255603,4.15849538 37.5341828,4.48579132 36.8505861,4.82881756 L32.9899451,6.76607252 L32.9899451,6.76607252 C31.6177725,7.45462351 30.3142319,8.27218107 29.0969478,9.20769138 L27.2915794,10.5951578 L27.2915794,10.5951578 C27.2751126,10.607813 27.2586526,10.6204771 27.2421997,10.6331502 L25.8955743,11.6704054 L25.8955743,11.6704054 C24.9822836,12.3738792 24.1143542,13.1343563 23.2969733,13.9472917 L22.9781801,14.2643511 L22.9781801,14.2643511 C21.9478309,15.2890967 20.9570582,16.3528811 20.0080353,17.4533711 L17.8874989,19.912352 L17.8874989,19.912352 C17.60861,20.2357524 17.3337155,20.5625761 17.062878,20.8927487 L15.5341641,22.7563732 L15.5341641,22.7563732 C15.0374368,23.3619236 14.5544538,23.9786192 14.0855851,24.6059879 L12.4538617,26.7893117 L12.4538617,26.7893117 C11.4095228,28.186687 10.4532255,29.6477469 9.59052292,31.1640073 L8.73917453,32.6603119 L8.73917453,32.6603119 C8.44322222,33.1804689 8.15627154,33.7056962 7.87845073,34.235759 L7.01856414,35.8763631 L7.01856414,35.8763631 C6.16855989,37.4981123 5.43599043,39.1787493 4.82649622,40.905334 L4.52063473,41.7717831 L4.52063473,41.7717831 C3.89622386,43.5406239 3.36798245,45.3419559 2.93822707,47.1678795 L2.42601021,49.3441613 L1.95418086,52.061262 L1.95418086,52.061262 C1.69303891,53.5650874 1.56174194,55.0885895 1.56174194,56.6149204 L1.56174194,56.6149204 L1.56174194,56.6149204 C1.56174194,58.1432699 1.49137776,59.670809 1.35087288,61.1926862 Z" id="Tooth" fill="#000000"></path>
    </g>
</svg>