<?xml version="1.0" encoding="UTF-8"?>
<svg width="484px" height="596px" viewBox="0 0 484 596" version="1.1" xmlns="http://www.w3.org/2000/svg" xmlns:xlink="http://www.w3.org/1999/xlink">
    <!-- Generator: Sketch 46.2 (44496) - http://www.bohemiancoding.com/sketch -->
    <title>R_logo</title>
    <desc>Created with Sketch.</desc>
    <defs></defs>
    <g id="Page-1" stroke="none" stroke-width="1" fill="none" fill-rule="evenodd">
        <g id="R_logo" transform="translate(-1.000000, 4.000000)">
            <path d="M418,227 L418,583 C418,585.209139 416.209139,587 414,587 L71,587 C68.790861,587 67,585.209139 67,583 L67,227" id="Rectangle" stroke-opacity="0.701794611" stroke="#000000" stroke-width="10"></path>
            <path d="M245.697942,2.46478636 L478.389117,215.046847 L478.389117,215.046847 C480.020098,216.53688 480.13436,219.066961 478.644328,220.697942 C477.8865,221.527456 476.814739,222 475.691175,222 L10.308825,222 L10.308825,222 C8.09968601,222 6.30882501,220.209139 6.30882501,218 C6.30882501,216.876436 6.78136895,215.804675 7.61088318,215.046847 L240.302058,2.46478636 L240.302058,2.46478636 C241.82989,1.06898974 244.17011,1.06898974 245.697942,2.46478636 Z" id="Triangle" stroke-opacity="0.7" stroke="#000000" stroke-width="10"></path>
            <path d="M186.392616,283.999259 L186.135985,286.7767 L186.135985,286.7767 C186.045376,287.757329 186,288.741602 186,289.726397 L186,290.821852 L186,293.475581 L186,293.475581 C186,293.871107 186.016698,294.266457 186.050049,294.660576 L186.196322,296.389135 L186.196322,296.389135 C186.224144,296.71791 186.263535,297.045608 186.314424,297.371619 L186.597805,299.187046 L186.597805,299.187046 C186.744519,300.126944 186.986284,301.049542 187.319386,301.940674 L187.980435,303.709137 L189.143045,306.398014 L190.781791,310.203088 L192.620037,314.43125 L194.346139,318.706794 L195.42387,321.438411 L196.657112,324.349222 L197.429087,326.741568 L198.031866,328.505346 L198.031866,328.505346 C198.276257,329.220457 198.482809,329.947874 198.650673,330.684697 L198.775926,331.234458 L198.775926,331.234458 C198.931816,331.91867 199.054148,332.610134 199.142473,333.306344 L199.169288,333.517669 L199.169288,333.517669 C199.275437,334.354309 199.328671,335.196794 199.328671,336.040159 L199.328671,344.517581 L199.328671,346.809055 L199.328671,358.133294 L199.328671,358.133294 C199.328671,358.70002 199.351523,359.266483 199.39717,359.831363 L199.724625,363.883231 L199.724625,363.883231 C199.734997,364.011573 199.748194,364.139739 199.764201,364.267509 L200.386061,369.231528 L201.204466,374.772118 L202.129341,380.214606 L202.946466,384.586713 L202.946466,384.586713 C203.065798,385.225214 203.217994,385.857122 203.402442,386.479976 L204.26732,389.400414 L204.26732,389.400414 C204.273545,389.421423 204.279809,389.442432 204.286104,389.463442 L205.476378,393.431844 L205.476378,393.431844 C205.638713,393.973077 205.825251,394.506751 206.035441,395.031283 L207.205551,397.951281 L207.205551,397.951281 C207.413247,398.469571 207.643825,398.978455 207.896609,399.476352 L208.276824,400.225262 L208.276824,400.225262 C208.701259,401.061286 209.203093,401.855731 209.775752,402.598268 L209.904972,402.76586 L209.904972,402.76586 C210.39115,403.39623 210.94782,403.969065 211.564151,404.473203 L211.564151,404.473203 L211.564151,404.473203 C212.180292,404.977165 212.854499,405.405747 213.572421,405.749897 L213.811419,405.864438 L213.811419,405.864438 C214.508592,406.19861 215.24389,406.446723 216.001085,406.603283 L216.001085,406.603283 L216.001085,406.603283 C216.759116,406.760062 217.531184,406.839045 218.305279,406.839045 L218.917554,406.839045 L218.917554,406.839045 C219.356805,406.839045 219.795181,406.799971 220.227486,406.722219 L220.227486,406.722219 L220.227486,406.722219 C220.655151,406.645346 221.059977,406.473139 221.411867,406.218433 L221.43822,406.199358 L221.43822,406.199358 C221.811071,405.929444 222.152971,405.61927 222.45771,405.274417 L222.543078,405.177809 L222.543078,405.177809 C222.903972,404.7694 223.207466,404.313786 223.445175,403.82345 L223.728527,403.239011 L223.728527,403.239011 C224.143096,402.383867 224.485793,401.495803 224.753071,400.583916 L225.086745,399.445541 L225.086745,399.445541 C225.296416,398.730211 225.459169,398.001958 225.573966,397.265443 L225.893339,395.216455 L225.893339,395.216455 C225.994297,394.568724 226.057988,393.915763 226.084095,393.260736 L226.192417,390.543184 L226.192417,390.543184 C226.209977,390.102558 226.210518,389.661449 226.194031,389.220823 L226.044902,385.234093 L226.044902,377.929812 L225.833585,371.754633 L225.626303,367.327541 L225.089855,358.611543 L225.089855,358.611543 C225.065666,358.218562 225.065525,357.824438 225.089433,357.431369 L225.163945,356.206407 L225.163945,356.206407 C225.20858,355.472705 225.336802,354.74643 225.54613,354.041737 L226.061217,352.30767 L226.061217,352.30767 C226.166164,351.954379 226.291241,351.607372 226.435836,351.268321 L227.390249,349.030425 L227.390249,349.030425 C227.640266,348.444184 227.945194,347.882908 228.300968,347.354025 L228.952626,346.385307 L228.952626,346.385307 C229.449832,345.646198 230.042598,344.975964 230.715533,344.392052 L231.521974,343.692281 L231.521974,343.692281 C231.891653,343.371514 232.284117,343.077998 232.696333,342.814018 L233.895502,342.046032 L233.895502,342.046032 C234.315988,341.776734 234.755916,341.538906 235.211593,341.334482 L236.730866,340.653039 L236.730866,340.653039 C237.09399,340.49015 237.466441,340.348842 237.846237,340.229819 L237.926032,340.204765 L237.926032,340.204765 C238.356855,340.069743 238.805757,340.001045 239.257298,340.001045 L245.029286,340.001045 L245.029286,340.001045 C245.384361,340.001045 245.738512,340.036866 246.086373,340.107894 L246.779411,340.249421 L246.779411,340.249421 C247.294472,340.354644 247.786482,340.551245 248.232129,340.829905 L249.530009,341.641492 L250.900601,342.555092 L250.900601,342.555092 C251.269884,342.801272 251.606571,343.092942 251.902789,343.423334 L253.287062,344.967217 L254.363459,346.285622 L254.363459,346.285622 C254.647933,346.634035 254.905265,347.003766 255.133081,347.39156 L255.700048,348.356366 L255.700048,348.356366 C255.935694,348.757347 256.130915,349.180699 256.282895,349.620182 L256.871197,351.321284 L257.753693,354.831215 L257.753693,354.831215 C257.922389,355.502197 258.054926,356.18175 258.150733,356.866929 L258.204355,357.250284 L258.519312,360.331676 L258.519312,362.038184 L258.519312,362.038184 C258.519312,362.610888 258.492611,363.18324 258.439385,363.753438 L258.35805,364.624054 L258.204355,365.783702 L258.00689,367.671295 L257.781626,370.033665 L257.672886,371.164568 L257.672886,371.164568 C257.598986,371.933037 257.561991,372.704583 257.561991,373.476568 L257.561991,373.870165 L257.561991,377.014673 L257.561991,381.422294 L257.35331,385.571562 L257.35331,385.571562 C257.340729,385.821389 257.334439,386.07148 257.334439,386.321615 L257.334439,391.30172 L257.334439,392.851976 L257.334439,392.851976 C257.334439,393.14936 257.342621,393.4467 257.358941,393.743644 L257.504015,396.383444 L257.504015,396.383444 C257.542548,397.085017 257.6512,397.781008 257.828253,398.461 L258.00689,399.14719 L258.318505,400.193748 L258.318505,400.193748 C258.452186,400.642681 258.61833,401.081329 258.815574,401.506219 L258.866029,401.614871 L258.866029,401.614871 C259.029842,401.967767 259.207071,402.314378 259.397189,402.653869 L259.562102,402.948264 L259.562102,402.948264 C259.847543,403.457939 260.181547,403.93887 260.559496,404.384374 L260.605552,404.4387 L260.605552,404.4387 C260.952929,404.848207 261.336772,405.225453 261.752287,405.565779 L261.752287,405.565779 L261.752287,405.565779 C262.167098,405.905534 262.621895,406.19338 263.106559,406.422989 L263.516532,406.617216 L263.516532,406.617216 C263.82709,406.764326 264.157223,406.866164 264.49677,406.919523 L264.49677,406.919523 L264.49677,406.919523 C264.837549,406.973101 265.181978,407 265.52698,407 L268.028735,407 L268.62667,407 L268.62667,407 C268.918577,407 269.209825,406.973057 269.496717,406.919523 L269.496717,406.919523 L269.496717,406.919523 C269.78273,406.866164 270.059417,406.771314 270.317938,406.638006 L270.385196,406.603283 L270.385196,406.603283 C270.689156,406.446548 270.976357,406.259221 271.242311,406.044248 L271.544775,405.799696 L271.544775,405.799696 C272.011449,405.422449 272.432154,404.991757 272.798358,404.516496 L273.684417,403.366474 L274.983484,401.136797 L276.555807,397.636623 L277.968276,393.72936 L279.416728,388.980182 L280.276438,385.725748 L280.276438,385.725748 C280.413022,385.2086 280.529504,384.686354 280.625531,384.160152 L281.167556,381.190664 L282.04561,377.014673 L282.391139,375.256125 L282.391139,375.256125 C282.514966,374.6258 282.613589,373.990815 282.686829,373.352665 L282.91117,371.397078 L283.53739,367.671295 L283.873066,364.987718 L283.873066,364.987718 C283.88701,364.876254 283.898447,364.764483 283.907333,364.652491 L284.212173,360.81709 L284.434138,358.059409 L284.434138,358.059409 C284.477511,357.520198 284.499241,356.979491 284.499241,356.438565 L284.499241,353.161935 L284.499241,349.343588 L284.499241,344.486946 L284.499241,344.486946 C284.499241,343.902638 284.484329,343.318419 284.454417,342.734903 L284.212173,338.004581 L284.212173,335.593731 L284.212173,335.593731 C284.212173,334.731159 284.145266,333.869862 284.012113,333.017575 L283.894004,332.261413 L283.894004,331.377216 L284.057333,330.349997 L284.709286,328.598306 L285.373336,326.741568 L286.481405,324.028939 L287.157947,322.31074 L288.279477,319.48546 L289.148249,317.387949 L289.276959,317.052941 L289.276959,317.052941 C289.822811,315.631863 290.445776,314.241551 291.143037,312.888203 L291.143037,312.888203 L292.020342,310.806295 L292.692178,309.292872 L294.140805,305.914798 L294.977158,303.709137 L295.925285,300.600525 L296.506724,298.155164 L297.087504,295.082395 L297.486391,293.052865 L297.83302,290.521238 L298,288.716175 L298,286.586148 L298,286.586148 C298,286.383025 297.991202,286.179994 297.973607,285.977631 L297.865527,284.734135 L297.865527,284.734135 C297.843885,284.485125 297.808958,284.237438 297.760923,283.992143 L297.323854,281.760527 L297.323854,281.760527 C297.300056,281.638796 297.272959,281.517711 297.242739,281.397408 L296.677839,279.150937 L296.09684,276.953451 L295.494594,275.34905 L295.494594,275.34905 C295.325458,274.898468 295.124343,274.460528 294.892744,274.038573 L293.943869,272.309549 L293.943869,272.309549 C293.766728,271.986764 293.572035,271.673891 293.360758,271.372323 L292.428335,270.041637 L290.724663,267.854718 L288.957867,266.050389 L288.957867,266.050389 C288.660153,265.746346 288.33543,265.469919 287.987745,265.224504 L286.481405,264.161388 L285.168834,263.294982 L285.168834,263.294982 C284.430004,262.807299 283.640675,262.400648 282.814572,262.082081 L281.012805,261.387276 L281.012805,261.387276 C279.002225,260.611944 276.860207,260.233732 274.705433,260.273602 L268.499279,260.388438 L268.499279,260.388438 C267.439729,260.408044 266.383787,260.518311 265.343064,260.718032 L265.343064,260.718032 L265.343064,260.718032 C264.302297,260.917765 263.280182,261.204677 262.287538,261.57573 L260.443323,262.265128 L256.652882,263.48626 L254.790807,263.983003 L254.609399,264.031316 L254.609399,264.031316 C253.428441,264.345836 252.231339,264.596258 251.023284,264.781487 L248.281968,265.201812 L248.281968,265.201812 C246.581903,265.462477 244.864462,265.593382 243.144469,265.593382 L238.276532,265.593382 L238.276532,265.593382 C236.514487,265.593382 234.757192,265.410749 233.032889,265.048412 L232.260848,264.886178 L232.260848,264.886178 C231.048966,264.63153 229.862281,264.269318 228.714873,263.803857 L228.714873,263.803857 L226.405237,263.026174 L223.90844,262.265128 L220.87724,261.489831 L218.820094,260.886404 L218.820094,260.886404 L218.820094,260.886404 C216.755755,260.263394 214.606902,259.965418 212.450786,260.003189 L205.597355,260.123247 L205.597355,260.123247 C204.894099,260.135567 204.195936,260.245097 203.522741,260.448719 L203.372024,260.494306 L203.372024,260.494306 C202.796633,260.668346 202.232714,260.87823 201.683589,261.122727 L201.320112,261.284562 L201.320112,261.284562 C201.012804,261.421391 200.708677,261.565246 200.407972,261.716015 L198.923833,262.460146 L198.923833,262.460146 C198.38036,262.732637 197.864072,263.056182 197.381945,263.426407 L196.667977,263.97466 L196.667977,263.97466 C196.660732,263.980222 196.653492,263.985788 196.646256,263.991358 L196.113982,264.401015 L196.113982,264.401015 C195.752257,264.679412 195.4085,264.980369 195.084758,265.302085 L194.958494,265.427561 L194.958494,265.427561 C194.550409,265.8331 194.157996,266.254088 193.782115,266.689602 L192.960574,267.641494 L192.960574,267.641494 C192.837894,267.783637 192.71697,267.927284 192.597832,268.072407 L192.042812,268.74847 L192.042812,268.74847 C191.824308,269.014625 191.611853,269.285682 191.405604,269.561428 L190.790153,270.384262 L190.790153,270.384262 C190.376523,270.937266 189.997765,271.515477 189.656076,272.115533 L189.338337,272.673525 L189.338337,272.673525 C189.208153,272.90215 189.081927,273.132998 188.959718,273.365978 L188.637406,273.980428 L188.637406,273.980428 C188.300747,274.622226 188.0106,275.287331 187.769199,275.97062 L187.689126,276.197267 L187.689126,276.197267 C187.414457,276.97472 187.182092,277.766453 186.99305,278.568998 L186.818443,279.310252 L186.631567,280.385533 L186.631567,280.385533 C186.528137,280.980666 186.476134,281.583587 186.476134,282.187625 L186.476134,282.187625 L186.476134,282.187625 C186.476134,282.792467 186.448266,283.396983 186.392616,283.999259 Z" id="Tooth_u" fill-opacity="0.7" fill="#000000"></path>
            <text id="Reguleringstannlegen" font-family="Arial-BoldMT, Arial" font-size="26" font-weight="bold" fill-opacity="0.7" fill="#000000">
                <tspan x="99" y="473">Reguleringstannlegene</tspan>
            </text>
            <text id="Eilertsen-&amp;-Hovlands" font-family="Arial-BoldMT, Arial" font-size="18" font-weight="bold" fill="#AAAAAA">
                <tspan x="138" y="509">Eilertsen &amp; Hovlandsdal</tspan>
            </text>
        </g>
    </g>
</svg>