<?xml version="1.0" encoding="UTF-8"?>
<svg width="710px" height="128px" viewBox="0 0 710 128" version="1.1" xmlns="http://www.w3.org/2000/svg" xmlns:xlink="http://www.w3.org/1999/xlink">
    <!-- Generator: Sketch 46.2 (44496) - http://www.bohemiancoding.com/sketch -->
    <title>Title_logo</title>
    <desc>Created with Sketch.</desc>
    <defs>
        <path d="M0.245515882,10.8657869 L0.131122549,12.1107439 C0.0907339216,12.5503039 0.070507451,12.9914991 0.070507451,13.4329307 L0.070507451,13.923951 L0.070507451,15.1134681 C0.070507451,15.2907618 0.0779503922,15.4679767 0.0928166667,15.64464 L0.158017843,16.4194603 C0.170419412,16.5668275 0.187978235,16.7137218 0.210661765,16.8598478 L0.33697902,17.6735982 C0.402376471,18.0948949 0.510143137,18.508449 0.658623725,18.9078967 L0.953285882,19.7005863 L1.47151961,20.9058645 L2.2019902,22.6114621 L3.02138627,24.5067063 L3.79079804,26.4231887 L4.27119608,27.6476167 L4.82091373,28.9523678 L5.16502157,30.02472 L5.4337098,30.8153212 C5.54264706,31.1358645 5.63471765,31.4619242 5.70954314,31.7921803 L5.76537451,32.0386263 C5.83486275,32.3453194 5.8893902,32.6552633 5.92876275,32.9673152 L5.94071373,33.0620597 C5.98803137,33.4370776 6.01175882,33.8147158 6.01175882,34.1927481 L6.01175882,37.9926931 L6.01175882,39.0198304 L6.01175882,44.0958412 C6.01175882,44.3498722 6.02194706,44.6037851 6.04229412,44.8569887 L6.18825686,46.6732101 C6.19288039,46.7307385 6.19876275,46.7881684 6.20589804,46.8454603 L6.48309216,49.0705528 L6.84789608,51.5540855 L7.26015686,53.9936327 L7.62439216,55.9533973 C7.67758431,56.2395989 7.74542353,56.5228551 7.82764314,56.802039 L8.21316275,58.1111047 C8.21593725,58.120526 8.21872745,58.1299433 8.22153529,58.1393547 L8.7521,59.918163 C8.82445882,60.1607633 8.9076098,60.3999808 9.00130196,60.6350964 L9.52287843,61.9439749 C9.61545882,62.1763028 9.71823922,62.4043929 9.83091765,62.6275773 L10.000398,62.963273 C10.1895902,63.3380072 10.4132824,63.6941255 10.6685451,64.0269625 L10.7261451,64.1020685 C10.9428569,64.3846411 11.1909922,64.6414087 11.4657235,64.867377 C11.7403686,65.0932766 12.0408941,65.285393 12.3609098,65.4396411 L12.4674431,65.4909905 C12.7782078,65.6407797 13.1059667,65.7519949 13.4434863,65.822181 C13.7813784,65.8924446 14.1255275,65.9278521 14.4705784,65.9278521 L14.743502,65.9278521 C14.9392961,65.9278521 15.1347039,65.9103296 15.3274039,65.8754927 C15.5180353,65.8410298 15.6984863,65.7638404 15.8553412,65.649662 L15.8670882,65.6411107 C16.0332863,65.5201319 16.1856882,65.3810924 16.3215255,65.226517 L16.3595765,65.1832167 C16.5204471,65.0001571 16.6557294,64.7959157 16.7616882,64.5761377 L16.8879902,64.3141571 C17.0727863,63.9308547 17.2255431,63.5327762 17.3446824,63.1240372 L17.4934176,62.6137666 C17.5868784,62.2931228 17.6594255,61.9666947 17.7105961,61.6365607 L17.8529569,60.7181087 C17.8979588,60.4277737 17.926349,60.1350824 17.9379863,59.8414789 L17.9862686,58.6233475 C17.994098,58.4258479 17.9943373,58.2281178 17.9869902,58.0306005 L17.9205157,56.2435805 L17.9205157,52.96949 L17.8263216,50.2015189 L17.7339255,48.217094 L17.4948039,44.3102131 C17.4840216,44.1340621 17.4839588,43.9573988 17.4946157,43.7812084 L17.5278294,43.2321278 C17.5477255,42.9032507 17.6048804,42.5777033 17.6981882,42.2618293 L17.9277882,41.4845463 C17.9745686,41.3261857 18.0303216,41.1706424 18.0947745,41.0186651 L18.5202039,40.0155439 C18.6316471,39.7527654 18.7675686,39.5011773 18.9261569,39.2641093 L19.2166275,38.8298884 C19.4382549,38.4985881 19.7024902,38.19816 20.002451,37.9364257 L20.3619216,37.6227582 C20.5267059,37.4789767 20.7016471,37.3474101 20.8853922,37.229083 L21.4199216,36.8848388 C21.6073529,36.7641278 21.803451,36.657523 22.0065686,36.5658913 L22.6837843,36.2604394 C22.8456471,36.1874257 23.0116471,36.1240854 23.1809412,36.0707337 L23.2165294,36.0595039 C23.4085686,35.9989809 23.6086667,35.9681875 23.8099412,35.9681875 L26.3828039,35.9681875 C26.5410784,35.9681875 26.6989412,35.9842442 26.854,36.0160818 L27.1629216,36.0795206 C27.3925098,36.126686 27.6118235,36.2148107 27.810451,36.3397182 L28.389,36.7035063 L28.9999412,37.1130215 C29.164549,37.2233696 29.3146275,37.3541087 29.4466667,37.5022048 L30.0637059,38.1942394 L30.5435098,38.7852054 C30.6703137,38.9413791 30.785,39.1071081 30.8865686,39.2809343 L31.1392941,39.7134018 C31.2443137,39.8931385 31.3313529,40.0829033 31.399098,40.2798985 L31.6613333,41.0424054 L32.0546863,42.6157075 C32.1298824,42.9164704 32.1889804,43.2210752 32.2316863,43.5282018 L32.2555686,43.7000382 L32.3959608,45.0812507 L32.3959608,45.8461809 C32.3959608,46.1028913 32.3840784,46.3594442 32.3603529,46.6150316 L32.324098,47.0052788 L32.2555686,47.5250869 L32.1675686,48.3711754 L32.0671569,49.4300893 L32.0186863,49.9370205 C31.9857451,50.2814735 31.9692549,50.6273115 31.9692549,50.9733505 L31.9692549,51.1497833 L31.9692549,52.5592832 L31.9692549,54.5349765 L31.8762353,56.3948427 C31.8706275,56.506826 31.8678235,56.6189314 31.8678235,56.7310546 L31.8678235,58.963346 L31.8678235,59.6582472 C31.8678235,59.7915514 31.8714706,59.924832 31.8787451,60.0579373 L31.9434118,61.241199 C31.9605882,61.5556782 32.0090196,61.8676454 32.0879412,62.1724512 L32.1675686,62.4800289 L32.3064706,62.9491451 C32.3660588,63.1503801 32.4401176,63.347001 32.5280392,63.5374573 L32.5505098,63.5861436 C32.623549,63.7443387 32.7025294,63.8996928 32.7872941,64.0518691 L32.8608039,64.1838435 C32.9880392,64.4122902 33.1369216,64.6278659 33.3053922,64.8275701 L33.3259216,64.8519073 C33.4807647,65.0354752 33.6518627,65.2045694 33.8370784,65.3571172 C34.0219804,65.509409 34.2247059,65.6384451 34.4407451,65.7413608 L34.6234902,65.8284144 C34.7619216,65.8943645 34.9090784,65.9400007 35.0604314,65.963926 C35.2123333,65.9879387 35.3658627,66 35.5196275,66 L36.6347843,66 L36.9013333,66 C37.0314314,66 37.1612745,65.987924 37.2891569,65.963926 C37.4166471,65.9400052 37.5399608,65.8974898 37.6552157,65.8377281 L37.6851961,65.822181 C37.8206863,65.751917 37.9487059,65.6679501 38.0672353,65.571584 L38.2020784,65.4619751 C38.4100784,65.2928693 38.5976275,65.0998189 38.7608627,64.8867849 L39.1558235,64.3713032 L39.7348824,63.3718642 L40.4357451,61.8029379 L41.0653529,60.0515284 L41.711,57.9227486 L42.0941961,56.4639713 C42.155098,56.2321576 42.2070196,55.9980546 42.2498235,55.7621943 L42.4914314,54.4311457 L42.8828235,52.5592832 L43.0368431,51.7710324 C43.0920392,51.4884992 43.136,51.2038678 43.1686471,50.9178159 L43.2686471,50.0412433 L43.5477647,48.3711754 L43.6974118,47.168289 C43.7036275,47.118326 43.7087255,47.0682251 43.7126863,47.0180257 L43.8485686,45.298834 L43.9475098,44.062723 C43.9668431,43.8210251 43.9765294,43.5786573 43.9765294,43.336191 L43.9765294,41.8674645 L43.9765294,40.155917 L43.9765294,37.9789612 C43.9765294,37.7170496 43.9698627,37.4551773 43.956549,37.1936203 L43.8485686,35.0732866 L43.8485686,33.99264 C43.8485686,33.6059982 43.8187451,33.2199278 43.7593922,32.8378961 L43.7067451,32.4989516 L43.7067451,32.1026167 L43.779549,31.6421731 L44.0701569,30.8569899 L44.3661569,30.02472 L44.8600784,28.808803 L45.1616275,28.0386322 L45.6615686,26.7722203 L46.0488235,25.8320257 L46.1061961,25.6818412 C46.3495098,25.0448722 46.6271961,24.4216746 46.938,23.815046 L47.3290588,22.8818454 L47.6285294,22.2034639 L48.2742549,20.6892663 L48.6470588,19.7005863 L49.0696863,18.3071785 L49.3288627,17.2110663 L49.5877451,15.8337152 L49.7655294,14.9239988 L49.9200588,13.7892125 L49.9944902,12.9801116 L49.9944902,12.0253379 C49.9944902,11.9342776 49.9905686,11.8432764 49.9827255,11.7525707 L49.934549,11.1951761 C49.924902,11.0835672 49.9093333,10.9725493 49.8879216,10.8625952 L49.693098,9.86229134 C49.6824706,9.80771821 49.6704118,9.7534406 49.6569412,9.69951761 L49.4051373,8.69255463 L49.1461569,7.7075391 L48.8777059,6.98837552 C48.8023137,6.78641552 48.7126667,6.59010985 48.6094314,6.40097552 L48.1864706,5.62593851 C48.1074902,5.48127045 48.0207255,5.34101552 47.926549,5.20584358 L47.5109216,4.6093809 L46.7515098,3.62909373 L45.9639608,2.82032776 C45.8312549,2.68403284 45.6865098,2.56013015 45.5315098,2.45011701 L44.8600784,1.97359701 L44.275,1.58522149 C43.9456667,1.36663343 43.5938235,1.18435522 43.2255882,1.04155881 L42.422451,0.730117612 C41.5262353,0.382583284 40.5714314,0.21305194 39.6109412,0.230921194 L36.844549,0.282401194 C36.3722549,0.29118806 35.9015686,0.340599403 35.4376667,0.430122985 C34.9737451,0.519666269 34.5181373,0.64825791 34.0756667,0.814597612 L33.2536078,1.12361552 L31.5640196,1.67096239 L30.734,1.89362866 L30.6531373,1.9152806 C30.1267255,2.05626448 29.5931176,2.16852358 29.0546275,2.25154567 L27.8326863,2.43995104 C27.0748824,2.5568006 26.3093137,2.61547164 25.5426471,2.61547164 L23.3727647,2.61547164 C22.5873333,2.61547164 21.8040196,2.53361194 21.0354118,2.37119284 L20.6912549,2.29847463 C20.1510784,2.18432418 19.6221176,2.02196418 19.1106471,1.81332537 L18.0811353,1.46474687 L16.9681882,1.12361552 L15.6170294,0.776081194 L14.7000588,0.505599403 C13.7798804,0.226350448 12.8220294,0.0927743284 11.8609412,0.109717612 L8.80602549,0.163522388 C8.49254902,0.169038806 8.18134314,0.218134925 7.88126667,0.30941194 L7.81408431,0.329842388 C7.55760196,0.407860299 7.30623725,0.501934925 7.06146471,0.611534328 L6.8994451,0.684075224 C6.76246275,0.74540597 6.62689804,0.809888955 6.49285882,0.877465075 L5.83130392,1.21103104 C5.58905098,1.3331606 5.35891373,1.47818328 5.14400588,1.64414866 L4.82575686,1.88988537 C4.82252745,1.89238746 4.8193,1.89488955 4.81607451,1.89737194 L4.57881373,2.08100955 C4.41757451,2.20579881 4.26434314,2.34069493 4.12003725,2.48490985 L4.0637549,2.54113791 C3.88185098,2.72292358 3.70693137,2.91162448 3.53938431,3.10684657 L3.17318039,3.53352179 C3.11849608,3.59723642 3.06459608,3.6616209 3.0114902,3.72667522 L2.7640902,4.02972358 C2.66669216,4.14901612 2.5719902,4.27051522 2.4800549,4.39412239 L2.20571765,4.76295403 C2.02134118,5.01083821 1.8525098,5.27001134 1.70020196,5.53897612 L1.55857059,5.78910627 C1.50054118,5.89157373 1.44427647,5.99504597 1.38980196,6.09948358 L1.24613137,6.37491045 C1.09606471,6.66259164 0.966731765,6.96071463 0.859127451,7.26699403 L0.823435098,7.36859463 C0.701001569,7.71707463 0.597424902,8.07195761 0.51315902,8.43170687 L0.435328431,8.76397254 L0.352028235,9.24594985 C0.305924314,9.51270806 0.282744314,9.78297313 0.282744314,10.0537307 C0.282744314,10.324843 0.270321765,10.5958173 0.245515882,10.8657869 Z" id="path-1"></path>
    </defs>
    <g id="Page-1" stroke="none" stroke-width="1" fill="none" fill-rule="evenodd">
        <g id="Title_logo" transform="translate(4.000000, 2.000000)">
            <g id="Tooth" transform="translate(26.000000, 25.000000)">
                <g id="Group-3">
                    <mask id="mask-2" fill="white">
                        <use xlink:href="#path-1"></use>
                    </mask>
                    <g id="Clip-2"></g>
                    <polygon id="Fill-1" fill-opacity="0.8" fill="#000000" mask="url(#mask-2)" points="-0.909884745 66.9850746 50.97488 66.9850746 50.97488 -0.876795224 -0.909884745 -0.876795224"></polygon>
                </g>
                <path d="M0.175275036,10.7751773 L0.0607073971,12.022192 L0.0607073971,12.022192 C0.0202572499,12.4624743 0,12.9043926 0,13.3465457 L0,13.8383827 L0,15.0298525 L0,15.0298525 C0,15.2074356 0.00745435511,15.3849398 0.0223431861,15.5618914 L0.0876437038,16.337979 L0.0876437038,16.337979 C0.100064078,16.4855923 0.117649658,16.6327221 0.140367806,16.7790941 L0.266877327,17.5941838 L0.266877327,17.5941838 C0.332374555,18.0161787 0.440305319,18.4304064 0.589011803,18.8305066 L0.884122645,19.6245107 L1.40314529,20.8317616 L2.13472798,22.540162 L2.95537372,24.4385206 L3.72595511,26.3581524 L4.20708465,27.5845925 L4.75763936,28.8914876 L5.10227118,29.9656021 L5.37136855,30.7575025 L5.37136855,30.7575025 C5.48047168,31.0785725 5.57268247,31.405168 5.64762189,31.7359866 L5.70353828,31.9828178 L5.70353828,31.9828178 C5.77313233,32.2900149 5.82774477,32.6004681 5.86717531,32.9130526 L5.87914645,33.007933 L5.87914645,33.007933 C5.92653419,33.3835672 5.95029973,33.761826 5.95029973,34.1404794 L5.95029973,37.9466689 L5.95029973,38.9754941 L5.95029973,44.0598462 L5.95029973,44.0598462 C5.95029973,44.3142947 5.96050152,44.5686248 5.98087956,44.8222445 L6.12706456,46.6414506 L6.12706456,46.6414506 C6.13169513,46.6990735 6.13758644,46.7566174 6.1447326,46.8139838 L6.4223488,49.0427268 L6.78770821,51.5303387 L7.20059871,53.9739047 L7.56538667,55.9368917 L7.56538667,55.9368917 C7.61865982,56.2235656 7.6866043,56.5072794 7.76894714,56.786928 L8.15505378,58.0981449 L8.15505378,58.0981449 C8.15783252,58.1075777 8.16062892,58.1170105 8.16343908,58.1264433 L8.69481168,59.9081747 L8.69481168,59.9081747 C8.76728265,60.1511776 8.85055828,60.3907862 8.9443931,60.6262902 L9.46676378,61.9373097 L9.46676378,61.9373097 C9.55948515,62.1700115 9.66242204,62.3984902 9.77527205,62.6220354 L9.94501051,62.9582808 L9.94501051,62.9582808 C10.1344908,63.3336387 10.3585235,63.6903284 10.614175,64.0237123 L10.6718627,64.0989576 L10.6718627,64.0989576 C10.8889064,64.3819807 11.1374195,64.6391722 11.4125673,64.8655197 L11.4125673,64.8655197 L11.4125673,64.8655197 C11.6876306,65.0917882 11.9886156,65.2842131 12.3091166,65.4387293 L12.4158122,65.4901558 L12.4158122,65.4901558 C12.7270501,65.6401924 13.055308,65.7515901 13.3933416,65.8218821 L13.3933416,65.8218821 L13.3933416,65.8218821 C13.7317482,65.8922728 14.0764213,65.9277346 14.4219996,65.9277346 L14.6953368,65.9277346 L14.6953368,65.9277346 C14.891431,65.9277346 15.0871344,65.9101912 15.2801279,65.875282 L15.2801279,65.875282 L15.2801279,65.875282 C15.4710495,65.8407674 15.6517753,65.7634501 15.808869,65.6490924 L15.820634,65.6405279 L15.820634,65.6405279 C15.9870851,65.5193422 16.1397191,65.3800803 16.2757632,65.2252483 L16.3138741,65.1818733 L16.3138741,65.1818733 C16.4749877,64.9985062 16.610476,64.7939449 16.7165962,64.5737939 L16.8430924,64.3113927 L16.8430924,64.3113927 C17.0281679,63.9274505 17.1811574,63.5287277 17.300478,63.1193092 L17.4494398,62.608202 L17.4494398,62.608202 C17.5430429,62.2870333 17.6157004,61.9600628 17.6669489,61.6293824 L17.8095265,60.709429 L17.8095265,60.709429 C17.854597,60.418611 17.8830304,60.1254446 17.8946854,59.8313508 L17.9430432,58.6112255 L17.9430432,58.6112255 C17.9508826,58.4133934 17.9511241,58.2153443 17.9437639,58.0175123 L17.8771882,56.2275518 L17.8771882,52.948079 L17.7828506,50.1755495 L17.6903139,48.1878754 L17.4508282,44.2745705 L17.4508282,44.2745705 C17.4400294,44.0981299 17.4399666,43.9211764 17.4506397,43.7446964 L17.483904,43.1947135 L17.483904,43.1947135 C17.5038303,42.865296 17.5610723,42.5392136 17.6545222,42.2228205 L17.8844718,41.4442602 L17.8844718,41.4442602 C17.9313234,41.2856394 17.9871613,41.1298405 18.0517123,40.9776134 L18.4777896,39.9728438 L18.4777896,39.9728438 C18.5894044,39.7096335 18.7255329,39.457632 18.8843607,39.2201744 L19.1752794,38.7852399 L19.1752794,38.7852399 C19.3972463,38.4533952 19.6618742,38.1524734 19.9622917,37.890309 L20.3223096,37.5761261 L20.3223096,37.5761261 C20.4873449,37.4321083 20.6625524,37.3003255 20.8465773,37.1818039 L21.3819207,36.8369941 L21.3819207,36.8369941 C21.5696374,36.7160847 21.7660341,36.6093047 21.969461,36.5175225 L22.6477079,36.2115686 L22.6477079,36.2115686 C22.8098171,36.1384349 22.9760895,36.0749905 23.1456414,36.0215512 L23.1812642,36.0103029 L23.1812642,36.0103029 C23.3735959,35.9496804 23.5739986,35.9188364 23.7755796,35.9188364 L26.35236,35.9188364 L26.35236,35.9188364 C26.5108756,35.9188364 26.6689787,35.9349195 26.8242736,35.9668094 L27.1336656,36.0303525 L27.1336656,36.0303525 C27.3636034,36.0775954 27.5832511,36.165865 27.7822006,36.2909777 L28.361611,36.6553635 L28.9734824,37.0655517 L28.9734824,37.0655517 C29.1383409,37.1760811 29.2886479,37.3070351 29.4208882,37.4553745 L30.0388669,38.1485464 L30.5194015,38.7404835 L30.5194015,38.7404835 C30.6463985,38.8969139 30.761279,39.0629152 30.8629827,39.2370271 L31.116093,39.6702052 L31.116093,39.6702052 C31.2212921,39.8502373 31.3084443,40.0403139 31.3762925,40.2376328 L31.6389271,41.0013927 L32.0328986,42.5772802 L32.0328986,42.5772802 C32.1082092,42.8785374 32.1673776,43.1836428 32.2101485,43.491274 L32.2340869,43.6633928 L32.3746928,45.0468751 L32.3746928,45.8130623 L32.3746928,45.8130623 C32.3746928,46.0701946 32.3627727,46.327169 32.3390111,46.5831765 L32.302701,46.9740649 L32.2340869,47.4947233 L32.1459332,48.342214 L32.0453686,49.4028699 L31.9968242,49.9106223 L31.9968242,49.9106223 C31.9638329,50.2556493 31.9473175,50.6020576 31.9473175,50.9486632 L31.9473175,51.12538 L31.9473175,52.5372001 L31.9473175,54.5161321 L31.8541563,56.3790685 L31.8541563,56.3790685 C31.8485399,56.4912358 31.8457317,56.6035215 31.8457317,56.7158269 L31.8457317,58.9517926 L31.8457317,59.6478258 L31.8457317,59.6478258 C31.8457317,59.7813452 31.8493843,59.9148448 31.8566699,60.0481668 L31.9214351,61.2333829 L31.9214351,61.2333829 C31.9386377,61.5483749 31.9871428,61.8608607 32.0661845,62.1661634 L32.1459332,62.4742485 L32.2850467,62.9441316 L32.2850467,62.9441316 C32.3447257,63.1456934 32.4188973,63.3426374 32.5069527,63.5334047 L32.5294772,63.5821868 L32.5294772,63.5821868 C32.602608,63.74063 32.6817283,63.8962513 32.7666024,64.0486757 L32.8402241,64.1808531 L32.8402241,64.1808531 C32.9676532,64.4096871 33.1167622,64.625615 33.2854893,64.8256375 L33.30605,64.8500286 L33.30605,64.8500286 C33.4611289,65.033889 33.6324875,65.2032648 33.8179852,65.3560642 L33.8179852,65.3560642 L33.8179852,65.3560642 C34.0031687,65.508607 34.2062029,65.6378441 34.4225711,65.7409338 L34.6055945,65.8281377 L34.6055945,65.8281377 C34.7442366,65.894187 34.8916176,65.9399104 35.043201,65.9638673 L35.043201,65.9638673 L35.043201,65.9638673 C35.1953342,65.9879229 35.3490974,66 35.5031159,66 L36.6199708,66 L36.8869061,66 L36.8869061,66 C37.0172219,66 37.1472431,65.9879031 37.2753202,65.9638673 L37.2753202,65.9638673 L37.2753202,65.9638673 C37.4030045,65.9399104 37.5265256,65.8973247 37.6419364,65.8374719 L37.6719624,65.8218821 L37.6719624,65.8218821 C37.8076589,65.7515111 37.9358735,65.6674054 38.054603,65.570887 L38.1896318,65.4610878 L38.1896318,65.4610878 C38.3979682,65.291712 38.5857832,65.0983398 38.749267,64.8849575 L39.1448292,64.3686209 L39.7247698,63.3675415 L40.4266997,61.7960349 L41.0572663,60.0417533 L41.7038965,57.9094694 L42.0876957,56.4482949 L42.0876957,56.4482949 C42.1486707,56.2161062 42.2006714,55.9816284 42.2435405,55.7453745 L42.4855162,54.4121347 L42.8775043,52.5372001 L43.0317585,51.7476481 L43.0317585,51.7476481 C43.0870386,51.4646447 43.1310663,51.1795495 43.1637631,50.8930335 L43.2639154,50.0150145 L43.5434777,48.342214 L43.693333,47.1373429 L43.693333,47.1373429 C43.6995581,47.0872978 43.7046639,47.0371146 43.7086307,46.9868327 L43.84472,45.2648159 L43.9438118,44.0266736 L43.9438118,44.0266736 C43.9631746,43.7845785 43.9728756,43.5418125 43.9728756,43.2989478 L43.9728756,41.8278077 L43.9728756,40.1134476 L43.9728756,37.9329144 L43.9728756,37.9329144 C43.9728756,37.6705724 43.9662184,37.4082698 43.9528648,37.146283 L43.84472,35.0224649 L43.84472,33.9400425 L43.84472,33.9400425 C43.84472,33.5527654 43.8148511,33.1660605 43.7554077,32.7834011 L43.7026805,32.4438996 L43.7026805,32.0469134 L43.7755953,31.5857132 L44.0666456,30.7992396 L44.3630964,29.9656021 L44.85777,28.747687 L45.1597979,27.9762506 L45.6604807,26.7077576 L46.0483252,25.7660179 L46.1057851,25.6156064 L46.1057851,25.6156064 C46.3494694,24.977571 46.6275785,24.3533493 46.9388557,23.7457237 L46.9388557,23.7457237 L47.33051,22.8109896 L47.6304366,22.1314933 L48.2771453,20.6148075 L48.6505169,19.6245107 L49.0737879,18.2288072 L49.333359,17.1308898 L49.5926355,15.7512793 L49.7707102,14.840062 L49.9254553,13.7034129 L50,12.8929765 L50,11.9366378 L50,11.9366378 C50,11.8454397 49.9960725,11.754283 49.9882174,11.6634263 L49.9399676,11.1051217 L49.9399676,11.1051217 C49.9303058,10.9933214 49.9147135,10.8821151 49.8932691,10.7719824 L49.6981489,9.77003275 L49.6981489,9.77003275 C49.6875249,9.71537783 49.6754281,9.66101299 49.661937,9.60699942 L49.4097496,8.59837973 L49.1503749,7.61175343 L48.8815152,6.89141003 L48.8815152,6.89141003 C48.8060082,6.68910828 48.7162246,6.49248199 48.6128321,6.30303292 L48.1892273,5.5267361 L48.1892273,5.5267361 C48.1101463,5.38181255 48.0232298,5.24133898 47.92891,5.10594097 L47.5126496,4.50849023 L46.7520815,3.52660795 L45.9633333,2.7165011 L45.9633333,2.7165011 C45.8304253,2.57999207 45.6854598,2.45588183 45.5302434,2.3456958 L44.85777,1.86837834 L44.2718007,1.47937979 L44.2718007,1.47937979 C43.9419659,1.2604199 43.589587,1.07784176 43.220791,0.93481187 L42.4164308,0.62285869 L42.4164308,0.62285869 C41.5188504,0.274750301 40.5625926,0.104940723 39.6006399,0.122841828 L36.8300353,0.174400741 L36.8300353,0.174400741 C36.357022,0.18320325 35.885619,0.232711242 35.4210107,0.322381543 L35.4210107,0.322381543 L35.4210107,0.322381543 C34.9563827,0.412057567 34.5000811,0.540875322 34.0569368,0.707470411 L33.2336262,1.01699633 L31.5414652,1.56525942 L30.7101817,1.78828725 L30.6291958,1.80997872 L30.6291958,1.80997872 C30.1019825,1.95119171 29.5675621,2.06362582 29.028252,2.14679026 L27.8044501,2.33550721 L27.8044501,2.33550721 C27.0454923,2.45254088 26.2787776,2.51131426 25.5109239,2.51131426 L23.3377374,2.51131426 L23.3377374,2.51131426 C22.5511101,2.51131426 21.7666036,2.4293161 20.9968254,2.26663404 L20.6521641,2.19379436 L20.6521641,2.19379436 C20.1111455,2.07946225 19.5813753,1.91683662 19.0691396,1.70785417 L19.0691396,1.70785417 L18.0380524,1.35869042 L16.9234106,1.01699633 L15.5701963,0.668903921 L14.6518275,0.397977254 L14.6518275,0.397977254 L14.6518275,0.397977254 C13.7302479,0.118258321 12.7709384,-0.0155266587 11.8083867,0.00143169533 L8.74881928,0.0553355217 L8.74881928,0.0553355217 C8.43486548,0.0608667867 8.12318572,0.110043506 7.82265232,0.201465622 L7.75536767,0.221933393 L7.75536767,0.221933393 C7.49849673,0.300073589 7.24674731,0.394307347 7.00160204,0.504081329 L6.83933573,0.576742219 L6.83933573,0.576742219 C6.70214479,0.638175329 6.56637366,0.702763489 6.43213034,0.770455786 L5.76956808,1.1045553 L5.76956808,1.1045553 C5.52694626,1.22689837 5.29646054,1.37216352 5.08122546,1.53838662 L4.76248987,1.78454117 L4.76248987,1.78454117 C4.75925554,1.78703849 4.75602318,1.78953759 4.75279278,1.79203846 L4.51517071,1.975966 L4.51517071,1.975966 C4.35368598,2.10096032 4.20022324,2.23608404 4.05569566,2.38052805 L3.99932761,2.4368643 L3.99932761,2.4368643 C3.8171467,2.61894278 3.6419627,2.80795771 3.47415855,3.00349469 L3.10739897,3.43087501 L3.10739897,3.43087501 C3.05263139,3.49469434 2.99864736,3.55918857 2.94546061,3.62434585 L2.69768389,3.92788431 L2.69768389,3.92788431 C2.60013754,4.04738275 2.50529138,4.16908151 2.41321609,4.29288588 L2.1384611,4.66232165 L2.1384611,4.66232165 C1.95380506,4.91060923 1.78471641,5.17021418 1.63217684,5.43962686 L1.49032922,5.69015424 L1.49032922,5.69015424 C1.43221105,5.79280192 1.37586047,5.89644814 1.32130282,6.00105146 L1.17741346,6.27692698 L1.17741346,6.27692698 C1.02711907,6.56508092 0.897589197,6.86369973 0.789820837,7.17048244 L0.754074135,7.2722421 L0.754074135,7.2722421 C0.631454176,7.62130265 0.527719792,7.97677473 0.443325794,8.33710135 L0.365376496,8.66990908 L0.281949458,9.15268829 L0.281949458,9.15268829 C0.23577553,9.41989078 0.212560037,9.69059011 0.212560037,9.96179069 L0.212560037,9.96179069 L0.212560037,9.96179069 C0.212560037,10.2333524 0.200118572,10.5047681 0.175275036,10.7751773 Z" id="Stroke-4"></path>
            </g>
            <text id="Reguleringstannlegen" font-family="Copperplate" font-size="48" font-weight="normal" fill-opacity="0.85" fill="#000000">
                <tspan x="98" y="50">Reguleringstannlegene</tspan>
            </text>
            <text id="EILERTSEN-&amp;-HOVLANDS" font-family="Copperplate" font-size="28" font-weight="normal" fill-opacity="0.7" fill="#000000">
                <tspan x="102" y="84">EILERTSEN &amp; HOVLANDSDAL</tspan>
            </text>
        </g>
    </g>
</svg>