<?xml version="1.0" encoding="UTF-8"?>
<svg width="267px" height="346px" viewBox="0 0 267 346" version="1.1" xmlns="http://www.w3.org/2000/svg" xmlns:xlink="http://www.w3.org/1999/xlink">
    <!-- Generator: Sketch 46.2 (44496) - http://www.bohemiancoding.com/sketch -->
    <title>Tooth_u</title>
    <desc>Created with Sketch.</desc>
    <defs></defs>
    <g id="Page-1" stroke="none" stroke-width="1" fill="none" fill-rule="evenodd" stroke-opacity="0.8">
        <path d="M7.25213144,60.1520565 L6.66872477,66.4712199 L6.66872477,66.4712199 C6.46274267,68.702313 6.3595878,70.9417064 6.3595878,73.1822877 L6.3595878,75.6746379 L6.3595878,81.7123252 L6.3595878,81.7123252 C6.3595878,82.6122146 6.39754721,83.5117035 6.4733648,84.4083933 L6.8058911,88.3411603 L6.8058911,88.3411603 C6.86913869,89.0891856 6.95868881,89.8347536 7.07437522,90.5764804 L7.71859255,94.7068986 L7.71859255,94.7068986 C8.05212035,96.8453219 8.60173042,98.9443925 9.35898116,100.97187 L10.8617577,104.995433 L13.5047491,111.113117 L17.2301486,119.770269 L21.409075,129.39011 L25.3330686,139.117698 L27.7830997,145.332566 L30.5866565,151.955186 L32.3416084,157.398213 L33.7119222,161.411087 L33.7119222,161.411087 C34.267497,163.038051 34.7370616,164.693127 35.1186679,166.369448 L35.4034073,167.620252 L35.4034073,167.620252 C35.7578014,169.177036 36.0358946,170.75021 36.2366916,172.334145 L36.2976446,172.814958 L36.2976446,172.814958 C36.5389568,174.718486 36.6599732,176.635339 36.6599732,178.554103 L36.6599732,197.841685 L36.6599732,203.05516 L36.6599732,228.819806 L36.6599732,228.819806 C36.6599732,230.109172 36.7119252,231.398014 36.8157028,232.683196 L37.5601054,241.901887 L37.5601054,241.901887 C37.5836888,242.193944 37.6136874,242.485447 37.6500796,242.776186 L39.0637714,254.070227 L40.9242716,266.676038 L43.0268045,279.058589 L44.8843955,289.005884 L44.8843955,289.005884 C45.1556757,290.458575 45.5016636,291.896315 45.9209818,293.31338 L47.8871295,299.957881 L47.8871295,299.957881 C47.9012797,300.005701 47.9155131,300.053497 47.9298295,300.101267 L50.635706,309.13007 L50.635706,309.13007 C51.0047429,310.36145 51.4288124,311.575661 51.9066369,312.769046 L54.5666776,319.412601 L54.5666776,319.412601 C55.0388375,320.591838 55.5630188,321.749575 56.1376791,322.882404 L57.0020328,324.586306 L57.0020328,324.586306 C57.9669124,326.488375 59.1077373,328.29594 60.4095754,329.985341 L60.7033407,330.366562 L60.7033407,330.366562 C61.808575,331.800829 63.0740639,333.104122 64.4751874,334.251083 L64.4751874,334.251083 L64.4751874,334.251083 C65.8758811,335.397692 67.4085635,336.372828 69.0406424,337.155754 L69.5839621,337.416391 L69.5839621,337.416391 C71.1688612,338.176685 72.8404325,338.741186 74.5617805,339.097434 L74.5617805,339.097434 L74.5617805,339.097434 C76.2850264,339.454075 78.0401899,339.633795 79.7999539,339.633795 L81.1918583,339.633795 L81.1918583,339.633795 C82.1904146,339.633795 83.1869866,339.544855 84.1697621,339.368031 L84.1697621,339.368031 L84.1697621,339.368031 C85.1419816,339.193106 86.0622755,338.801311 86.8622387,338.221769 L86.9221516,338.178365 L86.9221516,338.178365 C87.7697604,337.564306 88.5470085,336.858575 89.2397806,336.073988 L89.4338439,335.854206 L89.4338439,335.854206 C90.254278,334.925038 90.9442173,333.888364 91.4846057,332.772817 L92.1287537,331.443074 L92.1287537,331.443074 C93.0712107,329.49752 93.8502706,327.476972 94.4578824,325.402311 L95.2164259,322.812302 L95.2164259,322.812302 C95.6930803,321.184789 96.0630711,319.527919 96.3240422,317.852243 L97.0500814,313.190399 L97.0500814,313.190399 C97.2795924,311.716725 97.4243802,310.2311 97.4837312,308.740842 L97.7299732,302.557904 L97.7299732,302.557904 C97.7698972,301.555443 97.7711247,300.551814 97.7336528,299.549258 L97.3946313,290.478781 L97.3946313,273.860289 L96.914239,259.81074 L96.4430214,249.738281 L95.2234967,229.907943 L95.2234967,229.907943 C95.1685065,229.013762 95.1681859,228.117058 95.2225367,227.222838 L95.3919315,224.435832 L95.3919315,224.435832 C95.4933965,222.766456 95.7848895,221.114094 96.2607618,219.510767 L97.4317196,215.565531 L97.4317196,215.565531 C97.6702992,214.7617 97.9546384,213.972165 98.2833456,213.200792 L100.453042,208.109193 L100.453042,208.109193 C101.021406,206.775419 101.714611,205.498373 102.523399,204.295106 L104.00483,202.091123 L104.00483,202.091123 C105.135141,200.409513 106.482705,198.884636 108.01253,197.556084 L109.845795,195.964016 L109.845795,195.964016 C110.686167,195.234208 111.578407,194.566365 112.515481,193.965751 L115.352922,192.147104 L115.352922,192.147104 C116.234933,191.581782 117.154539,191.077383 118.105314,190.637431 L119.291598,190.088501 L119.291598,190.088501 C120.796043,189.39235 122.373707,188.866842 123.995104,188.521801 L124.06769,188.506354 L124.06769,188.506354 C125.64145,188.17145 127.246008,188.002611 128.855008,188.002611 L139.964327,188.002611 L139.964327,188.002611 C140.804619,188.002611 141.642586,188.090872 142.464439,188.26594 L144.926422,188.790385 L144.926422,188.790385 C145.70791,188.956855 146.46663,189.216388 147.18635,189.563432 L150.783873,191.29813 L153.899671,193.376722 L153.899671,193.376722 C154.739152,193.93675 155.504637,194.600435 156.178002,195.352059 L159.324875,198.864668 L161.771931,201.864313 L161.771931,201.864313 C162.418626,202.657043 163.003543,203.498224 163.521531,204.380451 L164.810411,206.575645 L164.810411,206.575645 C165.346049,207.487933 165.789888,208.451096 166.135409,209.450992 L167.472828,213.321312 L169.478938,221.30697 L169.478938,221.30697 C169.862447,222.833592 170.163759,224.379693 170.381576,225.938605 L170.503447,226.810832 L171.219448,233.821477 L171.219448,237.704131 L171.219448,237.704131 C171.219448,239.007061 171.158818,240.309284 171.037756,241.606577 L170.852904,243.587436 L170.503447,246.225824 L170.054616,250.52036 L169.542523,255.89515 L169.295304,258.468214 L169.295304,258.468214 C169.127323,260.216566 169.043188,261.971962 169.043188,263.728366 L169.043188,264.6239 L169.043188,271.778185 L169.043188,281.806315 L168.568767,291.246553 L168.568767,291.246553 C168.540202,291.814946 168.525913,292.383967 168.525913,292.953077 L168.525913,304.283645 L168.525913,307.810798 L168.525913,307.810798 C168.525913,308.487423 168.544473,309.163921 168.581573,309.839528 L168.911379,315.84548 L168.911379,315.84548 C168.999032,317.441699 169.24595,319.025168 169.648454,320.572291 L170.054616,322.133478 L170.763022,324.514596 L170.763022,324.514596 C171.066905,325.536016 171.444561,326.53402 171.893012,327.500735 L172.007649,327.747854 L172.007649,327.747854 C172.380133,328.550809 172.782943,329.339345 173.215211,330.111761 L173.590087,330.781627 L173.590087,330.781627 C174.239005,331.941174 174.998325,333.035381 175.857487,334.049029 L175.962193,334.172563 L175.962193,334.172563 C176.751933,335.104306 177.62446,335.962587 178.569077,336.736883 L178.569077,336.736883 L178.569077,336.736883 C179.512107,337.509879 180.545996,338.164835 181.647792,338.68721 L182.579769,339.129073 L182.579769,339.129073 C183.285818,339.46382 184.036272,339.695458 184.808161,339.816897 L184.808161,339.816897 L184.808161,339.816897 C185.582867,339.93878 186.365906,340 187.150141,340 L192.837447,340 L194.196803,340 L194.196803,340 C194.860346,340 195.52247,339.938705 196.174737,339.816897 L196.174737,339.816897 L196.174737,339.816897 C196.824907,339.695481 197.453839,339.479683 198.041589,339.176347 L198.194491,339.097434 L198.194491,339.097434 C198.88553,338.740791 199.538391,338.314595 200.142941,337.825464 L200.830568,337.269116 L200.830568,337.269116 C201.891446,336.410776 202.847926,335.430899 203.68038,334.34959 L205.694686,331.733125 L208.647883,326.660217 L212.222259,318.696732 L215.433304,309.807004 L218.726056,299.001833 L220.680447,291.597428 L220.680447,291.597428 C220.991018,290.4208 221.255773,289.232555 221.474115,288.035378 L222.706292,281.279304 L224.702437,271.778185 L225.487859,267.77721 L225.487859,267.77721 C225.769377,266.343141 225.993626,264.898421 226.16007,263.44649 L226.670119,258.997219 L228.093641,250.52036 L228.856797,244.414818 L228.856797,244.414818 C228.888498,244.161193 228.914476,243.906886 228.934709,243.65209 L229.627669,234.925936 L230.132275,228.65168 L230.132275,228.65168 C230.230936,227.424942 230.280326,226.194739 230.280326,224.964039 L230.280326,217.509141 L230.280326,208.821672 L230.280326,197.771993 L230.280326,197.771993 C230.280326,196.4426 230.246339,195.113424 230.1784,193.785768 L229.627669,183.023478 L229.627669,176.242899 L229.627669,176.242899 C229.627669,175.141603 229.675544,174.040827 229.77116,172.94369 L230.466955,164.959856 L230.466955,164.959856 C230.66005,162.744192 231.136638,160.562461 231.885044,158.468102 L232.267363,157.398213 L234.786429,151.226478 L236.32434,147.317294 L238.874028,140.889297 L240.848992,136.117142 L241.141576,135.354848 L241.141576,135.354848 C242.382534,132.121684 243.798696,128.958521 245.383767,125.879417 L245.383767,125.879417 L247.378217,121.142692 L248.905499,117.699411 L252.198709,110.013653 L254.100029,104.995433 L256.255433,97.9228082 L257.577222,92.359184 L258.897492,85.3681045 L259.804244,80.7505755 L260.592306,74.9906852 L260.971913,70.883853 L260.971913,66.0376753 L260.971913,66.0376753 C260.971913,65.5755316 260.95189,65.1136049 260.9119,64.6531946 L260.666171,61.8240283 L260.666171,61.8240283 C260.616963,61.2574806 260.537585,60.6939592 260.428376,60.1358633 L259.434836,55.0585594 L259.434836,55.0585594 C259.380638,54.7815933 259.319122,54.5061096 259.250352,54.2323976 L257.966191,49.1212868 L256.645415,44.121621 L255.276291,40.4713351 L255.276291,40.4713351 C254.891784,39.4461841 254.434567,38.4497975 253.908127,37.4897764 L251.750961,33.5559493 L251.750961,33.5559493 C251.348248,32.8215586 250.905721,32.1097137 250.425357,31.4235957 L248.305721,28.3960575 L244.432727,23.4204335 L240.416215,19.3152761 L240.416215,19.3152761 C239.739398,18.623522 239.001215,17.9946015 238.210743,17.4362485 L234.786429,15.0174722 L232.750348,13.6724188 L232.750348,13.6724188 C230.446601,12.1505424 227.930424,10.9777788 225.283497,10.1921988 L222.354513,9.32290739 L222.354513,9.32290739 C217.771348,7.9626723 212.996267,7.36261845 208.21905,7.54659457 L189.906659,8.25182595 L189.906659,8.25182595 C185.524679,8.42058109 181.178605,9.1127964 176.961023,10.3137257 L175.59338,10.7031532 L166.976462,13.4814381 L162.743404,14.6116159 L162.331014,14.7215364 L162.331014,14.7215364 C159.646338,15.4371235 156.924898,16.0068785 154.178636,16.4283016 L147.946697,17.3846134 L147.946697,17.3846134 C144.081898,17.9776797 140.177539,18.2755051 136.2675,18.2755051 L125.201097,18.2755051 L125.201097,18.2755051 C121.195403,18.2755051 117.200515,17.8599812 113.280568,17.0356044 L111.525447,16.6664971 L111.525447,16.6664971 C108.770504,16.0871242 106.072767,15.2630316 103.46434,14.2040266 L103.46434,14.2040266 L98.2137876,12.4346639 L92.5377569,10.7031532 L85.6468549,8.9392189 L83.3516634,8.4307537 L83.3516634,8.4307537 C76.9597329,7.0147175 70.4323748,6.30035824 63.8854723,6.30035824 L51.1304474,6.30035824 L51.1304474,6.30035824 C49.5035185,6.30035824 47.8806425,6.46256159 46.285897,6.78456178 L45.8992515,6.86263061 L45.8992515,6.86263061 C44.5623599,7.13256668 43.2592486,7.54886143 42.0134659,8.10399211 L41.187169,8.47219658 L41.187169,8.47219658 C40.4885566,8.78350382 39.7971791,9.11079976 39.1135824,9.453826 L35.7396506,11.1468521 L35.7396506,11.1468521 C34.5041595,11.7668169 33.3304639,12.5029379 32.2344329,13.3452625 L30.6113567,14.5926332 L30.6113568,14.5926332 C30.5948899,14.6052883 30.57843,14.6179524 30.561977,14.6306256 L29.3519467,15.5626668 L29.3519467,15.5626668 C28.5296285,16.1960679 27.7481531,16.8807942 27.0121912,17.6127535 L26.7251528,17.8982308 L26.7251528,17.8982308 C25.7974361,18.8209019 24.9053539,19.7787232 24.0508627,20.7695939 L22.1832235,22.9353144 L22.1832235,22.9353144 C21.9043346,23.2587148 21.6294401,23.5855386 21.3586026,23.9157111 L20.0968594,25.453877 L20.0968594,25.453877 C19.600132,26.0594274 19.1171491,26.6761231 18.6482804,27.3034918 L17.2491568,29.1755859 L17.2491568,29.1755859 C16.308844,30.4337693 15.447803,31.7492937 14.6710338,33.1145201 L13.9487106,34.3840539 L13.9487106,34.3840539 C13.6527583,34.9042108 13.3658077,35.4294381 13.0879868,35.959501 L12.3552666,37.3574804 L12.3552666,37.3574804 C11.5899309,38.8176879 10.9303324,40.3309174 10.3815496,41.8855178 L10.1995191,42.4011767 L10.1995191,42.4011767 C9.57510818,44.1700175 9.04686678,45.9713494 8.61711139,47.797273 L8.22017485,49.4837575 L7.7953442,51.9302091 L7.7953442,51.9302091 C7.56021447,53.2842392 7.44199594,54.655986 7.44199594,56.0302798 L7.44199594,56.0302798 L7.44199594,56.0302798 C7.44199594,57.406391 7.3786407,58.7817727 7.25213144,60.1520565 Z" id="Tooth_u" stroke="#000000" stroke-width="11"></path>
    </g>
</svg>