<?xml version="1.0" encoding="UTF-8"?>
<svg width="265px" height="345px" viewBox="0 0 265 345" version="1.1" xmlns="http://www.w3.org/2000/svg" xmlns:xlink="http://www.w3.org/1999/xlink">
    <!-- Generator: Sketch 46.2 (44496) - http://www.bohemiancoding.com/sketch -->
    <title>Tooth_u</title>
    <desc>Created with Sketch.</desc>
    <defs></defs>
    <g id="Page-1" stroke="none" stroke-width="1" fill="none" fill-rule="evenodd" stroke-opacity="0.8">
        <path d="M6.25213144,60.1520565 L5.66872477,66.4712199 L5.66872477,66.4712199 C5.46274267,68.702313 5.3595878,70.9417064 5.3595878,73.1822877 L5.3595878,75.6746379 L5.3595878,81.7123252 L5.3595878,81.7123252 C5.3595878,82.6122146 5.39754721,83.5117035 5.4733648,84.4083933 L5.8058911,88.3411603 L5.8058911,88.3411603 C5.86913869,89.0891856 5.95868881,89.8347536 6.07437522,90.5764804 L6.71859255,94.7068986 L6.71859255,94.7068986 C7.05212035,96.8453219 7.60173042,98.9443925 8.35898116,100.97187 L9.86175774,104.995433 L12.5047491,111.113117 L16.2301486,119.770269 L20.409075,129.39011 L24.3330686,139.117698 L26.7830997,145.332566 L29.5866565,151.955186 L31.3416084,157.398213 L32.7119222,161.411087 L32.7119222,161.411087 C33.267497,163.038051 33.7370616,164.693127 34.1186679,166.369448 L34.4034073,167.620252 L34.4034073,167.620252 C34.7578014,169.177036 35.0358946,170.75021 35.2366916,172.334145 L35.2976446,172.814958 L35.2976446,172.814958 C35.5389568,174.718486 35.6599732,176.635339 35.6599732,178.554103 L35.6599732,197.841685 L35.6599732,203.05516 L35.6599732,228.819806 L35.6599732,228.819806 C35.6599732,230.109172 35.7119252,231.398014 35.8157028,232.683196 L36.5601054,241.901887 L36.5601054,241.901887 C36.5836888,242.193944 36.6136874,242.485447 36.6500796,242.776186 L38.0637714,254.070227 L39.9242716,266.676038 L42.0268045,279.058589 L43.8843955,289.005884 L43.8843955,289.005884 C44.1556757,290.458575 44.5016636,291.896315 44.9209818,293.31338 L46.8871295,299.957881 L46.8871295,299.957881 C46.9012797,300.005701 46.9155131,300.053497 46.9298295,300.101267 L49.635706,309.13007 L49.635706,309.13007 C50.0047429,310.36145 50.4288124,311.575661 50.9066369,312.769046 L53.5666776,319.412601 L53.5666776,319.412601 C54.0388375,320.591838 54.5630188,321.749575 55.1376791,322.882404 L56.0020328,324.586306 L56.0020328,324.586306 C56.9669124,326.488375 58.1077373,328.29594 59.4095754,329.985341 L59.7033407,330.366562 L59.7033407,330.366562 C60.808575,331.800829 62.0740639,333.104122 63.4751874,334.251083 L63.4751874,334.251083 L63.4751874,334.251083 C64.8758811,335.397692 66.4085635,336.372828 68.0406424,337.155754 L68.5839621,337.416391 L68.5839621,337.416391 C70.1688612,338.176685 71.8404325,338.741186 73.5617805,339.097434 L73.5617805,339.097434 L73.5617805,339.097434 C75.2850264,339.454075 77.0401899,339.633795 78.7999539,339.633795 L80.1918583,339.633795 L80.1918583,339.633795 C81.1904146,339.633795 82.1869866,339.544855 83.1697621,339.368031 L83.1697621,339.368031 L83.1697621,339.368031 C84.1419816,339.193106 85.0622755,338.801311 85.8622387,338.221769 L85.9221516,338.178365 L85.9221516,338.178365 C86.7697604,337.564306 87.5470085,336.858575 88.2397806,336.073988 L88.4338439,335.854206 L88.4338439,335.854206 C89.254278,334.925038 89.9442173,333.888364 90.4846057,332.772817 L91.1287537,331.443074 L91.1287537,331.443074 C92.0712107,329.49752 92.8502706,327.476972 93.4578824,325.402311 L94.2164259,322.812302 L94.2164259,322.812302 C94.6930803,321.184789 95.0630711,319.527919 95.3240422,317.852243 L96.0500814,313.190399 L96.0500814,313.190399 C96.2795924,311.716725 96.4243802,310.2311 96.4837312,308.740842 L96.7299732,302.557904 L96.7299732,302.557904 C96.7698972,301.555443 96.7711247,300.551814 96.7336528,299.549258 L96.3946313,290.478781 L96.3946313,273.860289 L95.914239,259.81074 L95.4430214,249.738281 L94.2234967,229.907943 L94.2234967,229.907943 C94.1685065,229.013762 94.1681859,228.117058 94.2225367,227.222838 L94.3919315,224.435832 L94.3919315,224.435832 C94.4933965,222.766456 94.7848895,221.114094 95.2607618,219.510767 L96.4317196,215.565531 L96.4317196,215.565531 C96.6702992,214.7617 96.9546384,213.972165 97.2833456,213.200792 L99.4530418,208.109193 L99.4530418,208.109193 C100.021406,206.775419 100.714611,205.498373 101.523399,204.295106 L103.00483,202.091123 L103.00483,202.091123 C104.135141,200.409513 105.482705,198.884636 107.01253,197.556084 L108.845795,195.964016 L108.845795,195.964016 C109.686167,195.234208 110.578407,194.566365 111.515481,193.965751 L114.241554,192.218485 L114.241554,192.218485 C115.197529,191.605756 116.197566,191.064662 117.233461,190.599641 L120.687274,189.049197 L120.687274,189.049197 C121.512787,188.678618 122.359449,188.357079 123.222846,188.086255 L123.404315,188.029334 L123.404315,188.029334 C124.383733,187.722118 125.40422,187.565823 126.43069,187.565823 L139.552286,187.565823 L139.552286,187.565823 C140.359469,187.565823 141.164591,187.647266 141.955422,187.808913 L143.530857,188.130935 L143.530857,188.130935 C144.701759,188.37027 145.820277,188.817557 146.833348,189.451576 L149.783873,191.29813 L152.899671,193.376722 L152.899671,193.376722 C153.739152,193.93675 154.504637,194.600435 155.178002,195.352059 L158.324875,198.864668 L160.771931,201.864313 L160.771931,201.864313 C161.418626,202.657043 162.003543,203.498224 162.521531,204.380451 L163.810411,206.575645 L163.810411,206.575645 C164.346049,207.487933 164.789888,208.451096 165.135409,209.450992 L166.472828,213.321312 L168.478938,221.30697 L168.478938,221.30697 C168.862447,222.833592 169.163759,224.379693 169.381576,225.938605 L169.503447,226.810832 L170.219448,233.821477 L170.219448,237.704131 L170.219448,237.704131 C170.219448,239.007061 170.158818,240.309284 170.037756,241.606577 L169.852904,243.587436 L169.503447,246.225824 L169.054616,250.52036 L168.542523,255.89515 L168.295304,258.468214 L168.295304,258.468214 C168.127323,260.216566 168.043188,261.971962 168.043188,263.728366 L168.043188,264.6239 L168.043188,271.778185 L168.043188,281.806315 L167.568767,291.246553 L167.568767,291.246553 C167.540202,291.814946 167.525913,292.383967 167.525913,292.953077 L167.525913,304.283645 L167.525913,307.810798 L167.525913,307.810798 C167.525913,308.487423 167.544473,309.163921 167.581573,309.839528 L167.911379,315.84548 L167.911379,315.84548 C167.999032,317.441699 168.24595,319.025168 168.648454,320.572291 L169.054616,322.133478 L169.763022,324.514596 L169.763022,324.514596 C170.066905,325.536016 170.444561,326.53402 170.893012,327.500735 L171.007649,327.747854 L171.007649,327.747854 C171.380133,328.550809 171.782943,329.339345 172.215211,330.111761 L172.590087,330.781627 L172.590087,330.781627 C173.239005,331.941174 173.998325,333.035381 174.857487,334.049029 L174.962193,334.172563 L174.962193,334.172563 C175.751933,335.104306 176.62446,335.962587 177.569077,336.736883 L177.569077,336.736883 L177.569077,336.736883 C178.512107,337.509879 179.545996,338.164835 180.647792,338.68721 L181.579769,339.129073 L181.579769,339.129073 C182.285818,339.46382 183.036272,339.695458 183.808161,339.816897 L183.808161,339.816897 L183.808161,339.816897 C184.582867,339.93878 185.365906,340 186.150141,340 L191.837447,340 L193.196803,340 L193.196803,340 C193.860346,340 194.52247,339.938705 195.174737,339.816897 L195.174737,339.816897 L195.174737,339.816897 C195.824907,339.695481 196.453839,339.479683 197.041589,339.176347 L197.194491,339.097434 L197.194491,339.097434 C197.88553,338.740791 198.538391,338.314595 199.142941,337.825464 L199.830568,337.269116 L199.830568,337.269116 C200.891446,336.410776 201.847926,335.430899 202.68038,334.34959 L204.694686,331.733125 L207.647883,326.660217 L211.222259,318.696732 L214.433304,309.807004 L217.726056,299.001833 L219.680447,291.597428 L219.680447,291.597428 C219.991018,290.4208 220.255773,289.232555 220.474115,288.035378 L221.706292,281.279304 L223.702437,271.778185 L224.487859,267.77721 L224.487859,267.77721 C224.769377,266.343141 224.993626,264.898421 225.16007,263.44649 L225.670119,258.997219 L227.093641,250.52036 L227.856797,244.414818 L227.856797,244.414818 C227.888498,244.161193 227.914476,243.906886 227.934709,243.65209 L228.627669,234.925936 L229.132275,228.65168 L229.132275,228.65168 C229.230936,227.424942 229.280326,226.194739 229.280326,224.964039 L229.280326,217.509141 L229.280326,208.821672 L229.280326,197.771993 L229.280326,197.771993 C229.280326,196.4426 229.246339,195.113424 229.1784,193.785768 L228.627669,183.023478 L228.627669,177.538415 L228.627669,177.538415 C228.627669,175.57587 228.475633,173.616273 228.172926,171.677214 L227.904355,169.956823 L227.904355,167.945063 L228.275723,165.608022 L229.757796,161.622624 L231.267363,157.398213 L233.786429,151.226478 L235.32434,147.317294 L237.874028,140.889297 L239.848992,136.117142 L240.141576,135.354848 L240.141576,135.354848 C241.382534,132.121684 242.798696,128.958521 244.383767,125.879417 L244.383767,125.879417 L246.378217,121.142692 L247.905499,117.699411 L251.198709,110.013653 L253.100029,104.995433 L255.255433,97.9228082 L256.577222,92.359184 L257.897492,85.3681045 L258.804244,80.7505755 L259.592306,74.9906852 L259.971913,70.883853 L259.971913,66.0376753 L259.971913,66.0376753 C259.971913,65.5755316 259.95189,65.1136049 259.9119,64.6531946 L259.666171,61.8240283 L259.666171,61.8240283 C259.616963,61.2574806 259.537585,60.6939592 259.428376,60.1358633 L258.434836,55.0585594 L258.434836,55.0585594 C258.380638,54.7815933 258.319122,54.5061096 258.250352,54.2323976 L256.966191,49.1212868 L255.645415,44.121621 L254.276291,40.4713351 L254.276291,40.4713351 C253.891784,39.4461841 253.434567,38.4497975 252.908127,37.4897764 L250.750961,33.5559493 L250.750961,33.5559493 C250.348248,32.8215586 249.905721,32.1097137 249.425357,31.4235957 L247.305721,28.3960575 L243.432727,23.4204335 L239.416215,19.3152761 L239.416215,19.3152761 C238.739398,18.623522 238.001215,17.9946015 237.210743,17.4362485 L233.786429,15.0174722 L230.802482,13.0462493 L230.802482,13.0462493 C229.122873,11.9366847 227.328508,11.0114826 225.450506,10.2866892 L221.354513,8.70588767 L221.354513,8.70588767 C216.7838,6.94187303 211.914262,6.08137496 207.015799,6.17208754 L192.907201,6.43335873 L192.907201,6.43335873 C190.498479,6.47796485 188.098006,6.72884286 185.732112,7.18324097 L185.732112,7.18324097 L185.732112,7.18324097 C183.366067,7.63766804 181.04247,8.29044269 178.785928,9.13465216 L174.59338,10.7031532 L165.976462,13.4814381 L161.743404,14.6116159 L161.331014,14.7215364 L161.331014,14.7215364 C158.646338,15.4371235 155.924898,16.0068785 153.178636,16.4283016 L146.946697,17.3846134 L146.946697,17.3846134 C143.081898,17.9776797 139.177539,18.2755051 135.2675,18.2755051 L124.201097,18.2755051 L124.201097,18.2755051 C120.195403,18.2755051 116.200515,17.8599812 112.280568,17.0356044 L110.525447,16.6664971 L110.525447,16.6664971 C107.770504,16.0871242 105.072767,15.2630316 102.46434,14.2040266 L102.46434,14.2040266 L97.2137876,12.4346639 L91.5377569,10.7031532 L84.6468549,8.9392189 L79.9702969,7.5663174 L79.9702969,7.5663174 L79.9702969,7.5663174 C75.2773866,6.14886091 70.392352,5.47091487 65.4908008,5.55685015 L49.910729,5.83000405 L49.910729,5.83000405 C48.3120002,5.85803338 46.7248465,6.10723298 45.1944557,6.57050788 L44.8518277,6.67422711 L44.8518277,6.67422711 C43.5437734,7.07019706 42.2618089,7.54772054 41.0134659,8.10399211 L40.187169,8.47219658 L40.187169,8.47219658 C39.4885566,8.78350382 38.7971791,9.11079976 38.1135824,9.453826 L34.7396506,11.1468521 L34.7396506,11.1468521 C33.5041595,11.7668169 32.3304639,12.5029379 31.2344329,13.3452625 L29.6113567,14.5926332 L29.6113567,14.5926332 C29.5948899,14.6052883 29.57843,14.6179524 29.561977,14.6306256 L28.3519467,15.5626668 L28.3519467,15.5626668 C27.5296285,16.1960679 26.7481531,16.8807942 26.0121912,17.6127535 L25.7251528,17.8982308 L25.7251528,17.8982308 C24.7974361,18.8209019 23.9053539,19.7787232 23.0508627,20.7695939 L21.1832235,22.9353144 L21.1832235,22.9353144 C20.9043346,23.2587148 20.6294401,23.5855386 20.3586026,23.9157111 L19.0968594,25.453877 L19.0968594,25.453877 C18.600132,26.0594274 18.1171491,26.6761231 17.6482804,27.3034918 L16.2491568,29.1755859 L16.2491568,29.1755859 C15.308844,30.4337693 14.447803,31.7492937 13.6710338,33.1145201 L12.9487106,34.3840539 L12.9487106,34.3840539 C12.6527583,34.9042108 12.3658077,35.4294381 12.0879868,35.959501 L11.3552666,37.3574804 L11.3552666,37.3574804 C10.5899309,38.8176879 9.93033235,40.3309174 9.38154957,41.8855178 L9.19951905,42.4011767 L9.19951905,42.4011767 C8.57510818,44.1700175 8.04686678,45.9713494 7.61711139,47.797273 L7.22017485,49.4837575 L6.7953442,51.9302091 L6.7953442,51.9302091 C6.56021447,53.2842392 6.44199594,54.655986 6.44199594,56.0302798 L6.44199594,56.0302798 L6.44199594,56.0302798 C6.44199594,57.406391 6.3786407,58.7817727 6.25213144,60.1520565 Z" id="Tooth_u" stroke="#000000" stroke-width="10"></path>
    </g>
</svg>